<svg width="994" height="977" viewBox="0 0 994 977" fill="none" xmlns="http://www.w3.org/2000/svg">
<path d="M112.432 33.0868L112.45 33.0961L112.455 32.8961L112.508 32.8655L57.8932 1.34412L3.2334 32.8961V33.0961L57.8255 64.6108L112.432 33.0868Z" fill="#E6CF00" fill-opacity="0.1"/>
<path d="M5.37486 32.996L57.8254 63.2774L110.344 32.9561L57.8978 2.67469L5.37486 32.996ZM57.8254 65.9481L2.07593 33.76V32.4267L2.65513 31.8934L57.8931 0.00802395L114.858 32.888L113.611 33.5787V34.9214L112.49 34.388L57.8254 65.9481" fill="#BEC1C6"/>
<path d="M57.7714 127.5V64.6414L57.8255 64.6107L3.2334 33.0961V96.0121L57.7714 127.5Z" fill="#E6CF00" fill-opacity="0.1"/>
<path d="M4.38993 95.348L56.6145 125.497V65.248L4.38993 35.0974V95.348ZM58.9285 129.505L2.07593 96.6853V31.0894L60.1436 64.6106L58.9285 65.3106V129.505" fill="#BEC1C6"/>
<path d="M112.449 33.096L112.432 33.0867L57.8254 64.6107L57.8796 64.6414V127.563L57.8978 127.576L112.504 96.0481L112.455 96.016L112.449 33.096" fill="#E6CF00" fill-opacity="0.1"/>
<path d="M59.0365 65.2481V125.579L111.297 95.4067L111.293 35.0787L59.0365 65.2481ZM57.875 128.923L56.7188 128.204L56.723 65.3107L55.562 64.6414L57.2474 63.6067L112.436 31.7481L113.593 32.4227L113.606 33.096L113.612 95.3427L114.768 96.0121L113.083 97.0467L57.875 128.923" fill="#BEC1C6"/>
<path d="M57.8796 127.563L57.7712 127.5L57.7759 127.757L57.8254 127.788L57.8796 127.761V127.563Z" fill="#E6CF00" fill-opacity="0.1"/>
<path d="M57.8796 129.081L56.6145 128.44L56.6192 125.503L58.9327 126.831L59.0364 128.245L58.4405 128.773L57.8796 129.081" fill="#BEC1C6"/>
<path d="M57.8254 64.6107L57.7712 64.6413V127.5L57.8796 127.563V64.6413L57.8254 64.6107Z" fill="#E6CF00" fill-opacity="0.1"/>
<path d="M59.0364 129.56L56.6145 128.173V63.9733L57.7713 63.304L58.9822 63.9413L59.0364 64.6413V129.56Z" fill="#BEC1C6"/>
<path d="M58.5734 127.176L113.054 158.632L167.663 127.108L167.681 127.117V126.919L167.736 126.892L113.125 95.3667L58.5239 126.887L58.5734 126.919V127.176" fill="#E6CF00" fill-opacity="0.1"/>
<path d="M60.6114 127.017L113.054 157.295L165.572 126.977L113.125 96.7014L60.6114 127.017ZM113.054 159.971L57.4166 127.845V127.601L56.2239 126.941L57.9405 125.889L113.125 94.0308L170.104 126.923L168.838 127.611V129.011L167.699 128.419L113.054 159.971" fill="#BEC1C6"/>
<path d="M58.4646 127.117L58.5735 127.176V126.919L58.524 126.887L58.4693 126.919L58.4646 127.117" fill="#E6CF00" fill-opacity="0.1"/>
<path d="M59.7303 129.16L57.3125 127.796L57.3079 126.435L57.9047 125.907L58.4646 125.599L59.6761 126.209L59.7303 127.176V129.16Z" fill="#BEC1C6"/>
<path d="M113.054 158.632L58.5735 127.176V190.035L58.5188 190.069L113.003 221.521V158.664L113.054 158.632Z" fill="#E6CF00" fill-opacity="0.1"/>
<path d="M59.7301 189.428L111.846 219.519V159.269L59.7301 129.183V189.428ZM114.16 223.528L56.2009 190.065L57.4166 189.369V125.175L115.371 158.636L114.16 159.332V223.528Z" fill="#BEC1C6"/>
<path d="M58.5735 127.176L58.4646 127.117L58.4693 190.037L58.5188 190.069L58.5735 190.035V127.176Z" fill="#E6CF00" fill-opacity="0.1"/>
<path d="M58.5735 191.371L57.3079 190.707V125.139L59.6219 126.444L59.7303 127.176V190.707L58.5735 191.371" fill="#BEC1C6"/>
<path d="M167.681 127.117L167.664 127.108L113.054 158.632L113.107 158.664V221.584L113.13 221.593L167.737 190.069L167.677 190.037L167.681 127.117" fill="#E6CF00" fill-opacity="0.1"/>
<path d="M114.263 159.269V219.605L166.524 189.432V129.101L114.263 159.269ZM113.139 222.923L111.95 222.267V159.324L110.807 158.655L112.474 157.628L167.686 125.757L168.82 126.467L168.838 127.117L168.834 189.36L170.018 190.024L168.314 191.068L113.139 222.923" fill="#BEC1C6"/>
<path d="M113.107 221.584L113.003 221.521V221.784L113.057 221.811L113.107 221.779V221.584Z" fill="#E6CF00" fill-opacity="0.1"/>
<path d="M113.112 223.107L111.843 222.465L111.846 219.515L114.161 220.857L114.264 222.259L113.677 222.791L113.112 223.107" fill="#BEC1C6"/>
<path d="M113.054 158.632L113.003 158.664V221.521L113.107 221.584V158.664L113.054 158.632" fill="#E6CF00" fill-opacity="0.1"/>
<path d="M114.263 223.595L111.846 222.189V157.991L113.008 157.327L114.214 157.968L114.263 158.664V223.595" fill="#BEC1C6"/>
<path d="M167.786 127.185L222.271 158.636L276.882 127.113L276.895 127.121V126.923L276.95 126.896L222.345 95.3681L167.736 126.896L167.79 126.923L167.786 127.185" fill="#E6CF00" fill-opacity="0.1"/>
<path d="M169.823 127.023L222.271 157.299L274.79 126.983L222.345 96.7054L169.823 127.023ZM222.271 159.971L166.633 127.849L166.629 127.596L165.454 126.937L167.157 125.893L222.345 94.0321L279.322 126.928L278.053 127.615L278.057 129.083L276.895 128.441L222.271 159.971" fill="#BEC1C6"/>
<path d="M222.271 158.636L167.786 127.185V190.043L167.736 190.073L222.218 221.531L222.222 158.669L222.271 158.636" fill="#E6CF00" fill-opacity="0.1"/>
<path d="M168.943 189.432L221.061 219.524L221.065 159.273L168.946 129.187L168.943 189.432ZM223.379 223.532L165.435 190.079L166.633 189.379V125.179L224.59 158.641L223.374 159.337L223.379 223.532" fill="#BEC1C6"/>
<path d="M276.895 127.121L276.882 127.113L222.271 158.636L222.326 158.669L222.322 221.589L222.345 221.597L276.95 190.069L276.895 190.043V127.121" fill="#E6CF00" fill-opacity="0.1"/>
<path d="M223.478 159.273V219.609L275.739 189.437V129.105L223.478 159.273ZM222.353 222.931L221.169 222.267L221.165 159.332L220.026 158.659L221.693 157.633L276.927 125.748L278.039 126.495L278.053 127.121V189.365L279.231 190.029L277.533 191.073L222.353 222.931" fill="#BEC1C6"/>
<path d="M222.322 221.589L222.218 221.531V221.788L222.271 221.815L222.322 221.788V221.589" fill="#E6CF00" fill-opacity="0.1"/>
<path d="M222.33 223.112L221.061 222.471L221.065 219.519L223.374 220.867L223.478 222.267L222.895 222.791L222.33 223.112" fill="#BEC1C6"/>
<path d="M222.271 158.636L222.222 158.669L222.218 221.531L222.322 221.589L222.326 158.669L222.271 158.636Z" fill="#E6CF00" fill-opacity="0.1"/>
<path d="M223.483 223.595L221.061 222.195V158L222.226 157.331L223.429 157.977L223.478 158.669L223.483 223.595" fill="#BEC1C6"/>
<path d="M223.133 220.961L277.617 252.419L332.226 220.895L332.245 220.903V220.704L332.295 220.677L277.689 189.151L223.078 220.677L223.129 220.704L223.133 220.961" fill="#E6CF00" fill-opacity="0.1"/>
<path d="M225.17 220.804L277.617 251.085L330.134 220.763L277.693 190.483L225.17 220.804ZM277.617 253.756L221.975 221.631V221.377L220.801 220.713L222.499 219.675L277.689 187.816L334.649 220.696L333.402 221.387V222.729L332.281 222.196L277.617 253.756" fill="#BEC1C6"/>
<path d="M277.617 252.419L223.133 220.961V283.824L223.078 283.851L277.566 315.307V252.449L277.617 252.419Z" fill="#E6CF00" fill-opacity="0.1"/>
<path d="M224.289 283.213L276.409 313.305V253.055L224.289 222.964V283.213ZM278.723 317.313L220.783 283.86L221.975 283.164V218.956L279.939 252.419L278.723 253.119V317.313" fill="#BEC1C6"/>
<path d="M332.245 220.903L332.226 220.895L277.617 252.419L277.671 252.449V315.371L277.693 315.384L332.295 283.856L332.245 283.824V220.903" fill="#242000" fill-opacity="0.1"/>
<path d="M278.828 253.055V313.387L331.089 283.213V222.887L278.828 253.055ZM277.685 316.717L276.514 316.035V253.119L275.357 252.449L277.038 251.419L332.232 219.556L333.384 220.229L333.402 220.903V283.151L334.564 283.819L332.878 284.855L277.685 316.717" fill="#BEC1C6"/>
<path d="M277.671 315.371L277.566 315.307V315.569L277.617 315.596L277.671 315.569V315.371" fill="#242000" fill-opacity="0.1"/>
<path d="M277.672 316.888L276.409 316.247L276.406 313.309L278.724 314.637L278.828 316.052L278.232 316.581L277.672 316.888Z" fill="#BEC1C6"/>
<path d="M277.617 252.419L277.566 252.449V315.307L277.671 315.371V252.449L277.617 252.419" fill="#242000" fill-opacity="0.1"/>
<path d="M278.827 317.368L276.409 315.98V251.776L277.566 251.112L278.778 251.749L278.827 252.449V317.368" fill="#BEC1C6"/>
<path d="M333.006 220.967L387.492 252.419L442.097 220.889L442.12 220.903L442.114 220.704L442.169 220.673L387.564 189.149L332.953 220.677L333.006 220.704V220.967" fill="#242000" fill-opacity="0.1"/>
<path d="M335.045 220.804L387.491 251.08L440.009 220.763L387.563 190.487L335.045 220.804ZM387.491 253.756L331.854 221.631L331.85 221.381L330.674 220.719L332.378 219.675L387.563 187.815L444.501 220.687L443.275 221.377V222.671L442.173 222.187L387.491 253.756" fill="#BEC1C6"/>
<path d="M387.492 252.419L333.006 220.967V283.824L332.953 283.856L387.437 315.312L387.441 252.449L387.492 252.419" fill="#242000" fill-opacity="0.1"/>
<path d="M334.163 283.219L386.279 313.305V253.055L334.163 222.968V283.219ZM388.598 317.313L330.657 283.865L331.85 283.159V218.96L389.809 252.423L388.593 253.119L388.598 317.313" fill="#BEC1C6"/>
<path d="M442.119 220.903L442.097 220.889L387.491 252.419L387.545 252.449V315.371L387.563 315.379L442.169 283.851L442.114 283.824L442.119 220.903Z" fill="#E6CF00" fill-opacity="0.1"/>
<path d="M388.697 253.055L388.702 313.387L440.962 283.213V222.887L388.697 253.055ZM387.541 316.731L386.387 316.011V253.119L385.226 252.449L386.911 251.415L442.087 219.561L443.253 220.212L443.275 220.903V283.159L444.414 283.833L442.747 284.855L387.541 316.731" fill="#BEC1C6"/>
<path d="M387.545 315.371L387.437 315.312V315.569L387.491 315.596L387.545 315.565V315.371" fill="#E6CF00" fill-opacity="0.1"/>
<path d="M387.545 316.888L386.28 316.251V313.309L388.593 314.637L388.702 316.052L388.105 316.581L387.545 316.888" fill="#BEC1C6"/>
<path d="M387.491 252.419L387.441 252.449L387.437 315.312L387.545 315.371V252.449L387.491 252.419" fill="#E6CF00" fill-opacity="0.1"/>
<path d="M388.702 317.368L386.285 315.976V251.776L387.441 251.112L388.648 251.744L388.697 252.449L388.702 317.368" fill="#BEC1C6"/>
<path d="M389.78 127.191L444.263 158.641L498.87 127.117L498.888 127.127V126.928L498.937 126.896L444.33 95.3721L389.725 126.896L389.78 126.928V127.191Z" fill="#E6CF00" fill-opacity="0.1"/>
<path d="M391.818 127.028L444.263 157.304L496.781 126.987L444.33 96.7081L391.818 127.028ZM444.263 159.975L388.622 127.853V127.615L387.411 126.959L389.146 125.897L444.33 94.0374L501.273 126.909L500.045 127.601V128.997L498.91 128.428L444.263 159.975" fill="#BEC1C6"/>
<path d="M444.263 158.641L389.78 127.191V190.047L389.725 190.073L444.209 221.535V158.669L444.263 158.641Z" fill="#E6CF00" fill-opacity="0.1"/>
<path d="M390.937 189.441L443.052 219.529V159.279L390.937 129.192V189.441ZM445.361 223.537L387.389 190.065L388.622 189.369V125.183L446.577 158.641L445.366 159.341L445.361 223.537Z" fill="#BEC1C6"/>
<path d="M498.887 127.127L498.87 127.117L444.263 158.641L444.313 158.673V221.593L444.33 221.607L498.941 190.073L498.887 190.047V127.127" fill="#E6CF00" fill-opacity="0.1"/>
<path d="M445.47 159.279V219.615L497.73 189.437V129.111L445.47 159.279ZM444.307 222.955L443.157 222.235V159.341L441.994 158.673L443.681 157.639L498.893 125.771L500.03 126.472L500.045 127.127V189.383L501.188 190.056L499.515 191.081L444.307 222.955" fill="#BEC1C6"/>
<path d="M444.313 221.593L444.209 221.535V221.788L444.258 221.82L444.313 221.792V221.593" fill="#E6CF00" fill-opacity="0.1"/>
<path d="M444.318 223.112L443.052 222.471V219.533L445.366 220.861L445.47 222.276L444.874 222.8L444.318 223.112" fill="#BEC1C6"/>
<path d="M444.263 158.641L444.209 158.669V221.535L444.313 221.593V158.673L444.263 158.641" fill="#E6CF00" fill-opacity="0.1"/>
<path d="M445.47 223.595L443.047 222.204V158.004L444.205 157.34L445.415 157.973L445.47 158.673V223.595" fill="#BEC1C6"/>
<path d="M444.238 220.948L498.722 252.404L553.329 220.88L553.346 220.889V220.691L553.401 220.659L498.794 189.136L444.179 220.659L444.238 220.691V220.948Z" fill="#E6CF00" fill-opacity="0.1"/>
<path d="M446.272 220.791L498.722 251.071L551.241 220.749L498.794 190.473L446.272 220.791ZM498.722 253.741L443.081 221.617V221.381L441.866 220.723L443.602 219.66L498.794 187.803L555.754 220.681L554.504 221.373V222.716L553.386 222.181L498.722 253.741" fill="#BEC1C6"/>
<path d="M498.722 252.404L444.238 220.948V283.811L444.185 283.837L498.673 315.293L498.669 252.436L498.722 252.404" fill="#E6CF00" fill-opacity="0.1"/>
<path d="M445.395 283.2L497.512 313.291V253.045L445.39 222.951L445.395 283.2ZM499.826 317.3L441.844 283.828L443.081 283.132L443.077 218.943L501.022 252.396L499.829 253.095L499.826 317.3" fill="#BEC1C6"/>
<path d="M553.346 220.889L553.329 220.88L498.722 252.404L498.777 252.436V315.356L498.794 315.371L553.401 283.837L553.346 283.811V220.889Z" fill="#E6CF00" fill-opacity="0.1"/>
<path d="M499.934 253.041V313.372L552.189 283.2V222.873L499.934 253.041ZM498.79 316.704L497.62 316.016V253.104L496.458 252.436L498.145 251.401L553.333 219.543L554.486 220.216L554.504 220.889L554.509 283.137L555.665 283.805L553.98 284.841L498.79 316.704" fill="#BEC1C6"/>
<path d="M498.777 315.356L498.673 315.293L498.669 315.555L498.722 315.583L498.777 315.555V315.356" fill="#E6CF00" fill-opacity="0.1"/>
<path d="M498.771 316.879L497.515 316.228L497.511 313.287L499.829 314.629L499.934 316.039L499.337 316.567L498.771 316.879" fill="#BEC1C6"/>
<path d="M498.722 252.404L498.669 252.436L498.673 315.293L498.777 315.356V252.436L498.722 252.404" fill="#E6CF00" fill-opacity="0.1"/>
<path d="M499.934 317.368L497.511 315.961V251.772L498.663 251.097L499.879 251.736L499.934 252.436V317.368" fill="#BEC1C6"/>
<path d="M499.466 127.172L553.954 158.623L608.559 127.095L608.578 127.108V126.909L608.633 126.883L554.021 95.3547L499.416 126.879L499.47 126.909L499.466 127.172" fill="#E6CF00" fill-opacity="0.1"/>
<path d="M501.508 127.009L553.954 157.289L606.468 126.968L554.021 96.6921L501.508 127.009ZM553.95 159.956L498.314 127.836L498.309 127.588L497.134 126.923L498.837 125.879L554.021 94.0214L610.982 126.9L609.734 127.592V128.935L608.614 128.401L553.95 159.956" fill="#BEC1C6"/>
<path d="M553.954 158.623L499.466 127.172V190.029L499.416 190.056L553.9 221.516V158.655L553.954 158.623Z" fill="#E6CF00" fill-opacity="0.1"/>
<path d="M500.627 189.419L552.742 219.511V159.26L500.627 129.173V189.419ZM555.057 223.519L497.115 190.065L498.314 189.365V125.165L556.25 158.615L555.057 159.315V223.519Z" fill="#BEC1C6"/>
<path d="M608.578 127.108L608.559 127.095L553.954 158.623L554.003 158.655V221.575L554.026 221.584L608.633 190.061L608.578 190.029V127.108" fill="#E6CF00" fill-opacity="0.1"/>
<path d="M555.161 159.264V219.596L607.421 189.424V129.092L555.161 159.264ZM554.035 222.917L552.848 222.253V159.315L551.705 158.647L553.372 157.62L608.565 125.761L609.713 126.435L609.734 127.108V189.356L610.895 190.024L609.212 191.06L554.035 222.917" fill="#BEC1C6"/>
<path d="M554.003 221.575L553.899 221.516V221.775L553.954 221.801L554.003 221.775V221.575" fill="#E6CF00" fill-opacity="0.1"/>
<path d="M554.004 223.099L552.742 222.448V219.492L555.057 220.852L555.161 222.248L554.574 222.777L554.004 223.099Z" fill="#BEC1C6"/>
<path d="M553.954 158.623L553.899 158.655V221.516L554.003 221.575V158.655L553.954 158.623" fill="#E6CF00" fill-opacity="0.1"/>
<path d="M555.161 223.595L552.742 222.176V157.991L553.9 157.313L555.106 157.959L555.161 158.655V223.595Z" fill="#BEC1C6"/>
<path d="M553.928 220.953L608.412 252.408L663.022 220.885L663.04 220.895V220.696L663.094 220.668L608.484 189.14L553.877 220.668L553.928 220.696V220.953" fill="#E6CF00" fill-opacity="0.1"/>
<path d="M555.965 220.795L608.411 251.076L660.935 220.759L608.483 190.475L555.965 220.795ZM608.411 253.741L552.77 221.621V221.373L551.595 220.708L553.298 219.665L608.483 187.807L665.461 220.7L664.193 221.381V222.855L663.035 222.213L608.411 253.741" fill="#BEC1C6"/>
<path d="M608.412 252.408L553.928 220.953V283.816L553.877 283.847L608.357 315.303V252.44L608.412 252.408Z" fill="#E6CF00" fill-opacity="0.1"/>
<path d="M555.085 283.204L607.199 313.296V253.045L555.085 222.959V283.204ZM609.513 317.304L551.577 283.851L552.77 283.151V218.951L610.729 252.408L609.518 253.109L609.513 317.304" fill="#BEC1C6"/>
<path d="M663.04 220.895L663.022 220.885L608.412 252.408L608.466 252.44V315.361L608.484 315.371L663.094 283.847L663.036 283.816L663.04 220.895Z" fill="#E6CF00" fill-opacity="0.1"/>
<path d="M609.622 253.045L609.617 313.381L661.882 283.209L661.88 222.877L609.622 253.045ZM608.493 316.704L607.309 316.044V253.1L606.164 252.427L607.833 251.405L663.068 219.525L664.178 220.261L664.197 220.895L664.193 283.137L665.373 283.801L663.672 284.845L608.493 316.704" fill="#BEC1C6"/>
<path d="M608.466 315.361L608.357 315.303V315.555L608.412 315.588L608.461 315.56L608.466 315.361" fill="#E6CF00" fill-opacity="0.1"/>
<path d="M608.47 316.884L607.199 316.243V313.291L609.513 314.633L609.617 316.039L609.034 316.563L608.47 316.884" fill="#BEC1C6"/>
<path d="M608.412 252.408L608.357 252.44V315.303L608.466 315.361V252.44L608.412 252.408Z" fill="#E6CF00" fill-opacity="0.1"/>
<path d="M609.617 317.368L607.199 315.967V251.772L608.366 251.103L609.569 251.749L609.617 252.44V317.368Z" fill="#BEC1C6"/>
<path d="M224.711 33.1454L279.195 64.6014L333.806 33.0774L333.825 33.0867V32.888L333.874 32.86L279.269 1.33204L224.662 32.86L224.711 32.888V33.1454" fill="#E6CF00" fill-opacity="0.1"/>
<path d="M226.75 32.9867L279.196 63.268L331.714 32.9507L279.269 2.66803L226.75 32.9867ZM279.196 65.9387L223.556 33.8133V33.556L222.398 32.888L224.08 31.8573L279.269 -8.27678e-06L336.206 32.8707L334.981 33.56V34.9747L333.842 34.3933L279.196 65.9387" fill="#BEC1C6"/>
<path d="M279.195 64.6013L224.711 33.1453V96.008L224.662 96.0386L279.146 127.491V64.6333L279.195 64.6013Z" fill="#E6CF00" fill-opacity="0.1"/>
<path d="M225.869 95.3974L277.989 125.488V65.2428L225.869 35.1467V95.3974ZM280.302 129.497L222.381 96.0574L223.556 95.3521V31.1387L281.488 64.5921L280.302 65.2921V129.497" fill="#BEC1C6"/>
<path d="M333.825 33.0867L333.806 33.0773L279.196 64.6014L279.246 64.6333V127.553L279.269 127.563L333.874 96.0347L333.825 96.008V33.0867" fill="#E6CF00" fill-opacity="0.1"/>
<path d="M280.402 65.2428V125.579L332.668 95.3975V35.0708L280.402 65.2428ZM279.264 128.904L278.089 128.208V65.2921L276.95 64.6201L278.618 63.5988L333.829 31.7268L334.964 32.4361L334.981 33.0868V95.3294L336.157 95.9934L334.453 97.0374L279.264 128.904" fill="#BEC1C6"/>
<path d="M279.246 127.553L279.146 127.491V127.748L279.196 127.78L279.246 127.752V127.553Z" fill="#E6CF00" fill-opacity="0.1"/>
<path d="M279.246 129.081L277.989 128.425V125.484L280.302 126.827L280.402 128.223L279.815 128.756L279.246 129.081" fill="#BEC1C6"/>
<path d="M279.196 64.6014L279.146 64.6334V127.491L279.246 127.553V64.6334L279.196 64.6014" fill="#E6CF00" fill-opacity="0.1"/>
<path d="M280.402 129.56L277.989 128.159V63.9733L279.146 63.2867L280.353 63.9413L280.402 64.6333V129.56" fill="#BEC1C6"/>
<path d="M2.30009 220.961L56.7891 252.419L111.404 220.895L111.417 220.903L111.412 220.704L111.471 220.677L56.8615 189.149L2.25049 220.677L2.30009 220.704V220.961" fill="#E6CF00" fill-opacity="0.1"/>
<path d="M4.34332 220.804L56.7891 251.08L109.312 220.763L56.8615 190.487L4.34332 220.804ZM56.7891 253.751L1.14332 221.631V221.351L0.0449219 220.668L1.67199 219.675L56.8615 187.816L113.84 220.708L112.574 221.396V222.869L111.413 222.223L56.7891 253.751" fill="#BEC1C6"/>
<path d="M3.45667 283.213L55.5775 313.305V253.055L3.45667 222.968V283.213ZM57.8911 317.313L0 283.887L1.1432 283.177V218.96L59.1249 252.431L57.8911 253.127V317.313" fill="#BEC1C6"/>
<path d="M111.417 220.903L111.404 220.895L56.7891 252.419L56.8385 252.449V315.371L56.8615 315.384L111.467 283.856L111.412 283.824L111.417 220.903" fill="#E6CF00" fill-opacity="0.1"/>
<path d="M57.9953 253.055V313.391L110.256 283.219L110.26 222.892L57.9953 253.055ZM56.8698 316.712L55.6818 316.052V253.109L54.5386 252.44L56.2104 251.415L111.444 219.529L112.56 220.275L112.574 220.903L112.57 283.147L113.75 283.811L112.045 284.855L56.8698 316.712" fill="#BEC1C6"/>
<path d="M56.8516 316.888L55.5776 316.256V313.309L57.8912 314.637L57.9953 316.044L57.4131 316.572L56.8516 316.888" fill="#BEC1C6"/>
<path d="M57.9953 317.368L55.5776 315.98V251.772L56.7438 251.116L57.9459 251.759L57.9953 252.449V317.368" fill="#BEC1C6"/>
<path d="M165.503 315.353L219.993 346.809L274.603 315.285L274.613 315.295V315.095L274.67 315.064L220.066 283.54L165.458 315.068L165.503 315.095V315.353" fill="#E6CF00" fill-opacity="0.1"/>
<path d="M167.546 315.195L219.993 345.471L272.516 315.153L220.065 284.876L167.546 315.195ZM219.993 348.143L164.346 316.021V315.755L163.212 315.083L164.876 314.065L220.066 282.207L276.944 315.041L275.773 315.751V317.256L274.616 316.613L219.993 348.143" fill="#BEC1C6"/>
<path d="M219.993 346.809L165.503 315.353L165.508 378.215L165.454 378.247L219.933 409.699V346.841L219.993 346.809Z" fill="#E6CF00" fill-opacity="0.1"/>
<path d="M166.66 377.605L218.778 407.692V347.441L166.66 317.355V377.605ZM221.09 411.7L163.194 378.273L164.346 377.565V313.352L222.301 346.805L221.093 347.505L221.09 411.7" fill="#BEC1C6"/>
<path d="M274.613 315.295L274.603 315.285L219.993 346.809L220.049 346.841L220.046 409.761L220.066 409.775L274.67 378.247L274.615 378.215L274.613 315.295" fill="#E6CF00" fill-opacity="0.1"/>
<path d="M221.203 347.441V407.777L273.459 377.609V317.279L221.203 347.441ZM220.043 411.121L218.889 410.403V347.505L217.737 346.836L219.413 345.805L274.646 313.925L275.759 314.661L275.773 315.295V377.551L276.918 378.22L275.246 379.251L220.043 411.121" fill="#BEC1C6"/>
<path d="M220.046 409.761L219.933 409.699L219.936 409.96L219.993 409.987L220.046 409.96V409.761" fill="#E6CF00" fill-opacity="0.1"/>
<path d="M220.049 411.284L218.778 410.639V407.723L221.09 409.02L221.206 410.439L220.61 410.964L220.049 411.284" fill="#BEC1C6"/>
<path d="M219.993 346.809L219.933 346.841V409.699L220.046 409.761L220.049 346.841L219.993 346.809" fill="#E6CF00" fill-opacity="0.1"/>
<path d="M221.203 411.736L218.775 410.376L218.778 346.172L219.935 345.504L221.149 346.14L221.206 346.841L221.203 411.736" fill="#BEC1C6"/>
<path d="M220.439 409.115L274.923 440.571L329.529 409.047L329.549 409.056L329.547 408.857L329.602 408.825L274.995 377.303L220.385 408.825L220.439 408.857V409.115" fill="#E6CF00" fill-opacity="0.1"/>
<path d="M222.473 408.956L274.923 439.237L327.441 408.916L274.995 378.64L222.473 408.956ZM274.923 441.904L219.282 409.784L219.285 409.527L218.131 408.857L219.806 407.823L274.995 375.967L331.934 408.84L330.706 409.536V410.823L329.602 410.34L274.923 441.904" fill="#BEC1C6"/>
<path d="M274.923 440.571L220.439 409.115V471.976L220.385 472.009L274.869 503.465V440.603L274.923 440.571Z" fill="#E6CF00" fill-opacity="0.1"/>
<path d="M221.596 471.371L273.713 501.459V441.208L221.598 411.121L221.596 471.371ZM276.026 505.467L218.045 471.991L219.282 471.299V407.113L277.257 440.585L276.026 441.28V505.467" fill="#BEC1C6"/>
<path d="M329.549 409.056L329.529 409.047L274.923 440.571L274.977 440.603V503.523L274.995 503.537L329.602 472.004L329.549 471.976V409.056" fill="#E6CF00" fill-opacity="0.1"/>
<path d="M276.134 441.208V501.543L328.39 471.367L328.393 411.04L276.134 441.208ZM274.973 504.883L273.821 504.165V441.28L272.641 440.616L274.345 439.567L329.516 407.719L330.686 408.365L330.706 409.056L330.705 471.313L331.848 471.987L330.18 473.008L274.973 504.883" fill="#BEC1C6"/>
<path d="M274.977 503.523L274.869 503.465V503.717L274.924 503.749L274.977 503.717V503.523" fill="#E6CF00" fill-opacity="0.1"/>
<path d="M274.977 505.037L273.713 504.409V501.485L276.026 502.787L276.134 504.213L275.529 504.739L274.977 505.037" fill="#BEC1C6"/>
<path d="M274.924 440.571L274.869 440.603V503.465L274.977 503.523V440.603L274.924 440.571" fill="#E6CF00" fill-opacity="0.1"/>
<path d="M276.134 505.501L273.713 504.143V439.925L274.869 439.275L276.08 439.893L276.134 440.603V505.501" fill="#BEC1C6"/>
<path d="M109.773 409.12L164.252 440.571L218.864 409.047L218.881 409.056V408.857L218.933 408.831L164.324 377.303L109.718 408.825L109.77 408.857L109.773 409.12" fill="#E6CF00" fill-opacity="0.1"/>
<path d="M111.806 408.956L164.252 439.237L216.773 408.916L164.324 378.637L111.806 408.956ZM164.252 441.909L108.616 409.784V409.544L107.4 408.889L109.14 407.827L164.327 375.969L221.262 408.84L220.037 409.531V410.851L218.927 410.344L164.252 441.909" fill="#BEC1C6"/>
<path d="M164.252 440.571L109.773 409.12V471.976L109.718 472.004L164.198 503.46V440.603L164.252 440.571Z" fill="#E6CF00" fill-opacity="0.1"/>
<path d="M110.929 471.371L163.041 501.459V441.208L110.929 411.121V471.371ZM165.354 505.467L107.382 471.991L108.616 471.299V407.113L166.588 440.585L165.354 441.276V505.467Z" fill="#BEC1C6"/>
<path d="M218.881 409.056L218.863 409.047L164.252 440.571L164.306 440.603V503.523L164.324 503.532L218.93 472.009L218.881 471.976V409.056" fill="#E6CF00" fill-opacity="0.1"/>
<path d="M165.463 441.208V501.539L217.723 471.367V411.04L165.463 441.208ZM164.304 504.883L163.149 504.165V441.276L161.969 440.616L163.673 439.567L218.858 407.715L220.019 408.373L220.037 409.056V471.313L221.181 471.981L219.509 473.008L164.304 504.883Z" fill="#BEC1C6"/>
<path d="M164.306 503.523L164.198 503.46V503.723L164.252 503.749L164.306 503.723V503.523" fill="#E6CF00" fill-opacity="0.1"/>
<path d="M164.306 505.033L163.041 504.409V501.485L165.354 502.787L165.463 504.213L164.857 504.739L164.306 505.033" fill="#BEC1C6"/>
<path d="M164.252 440.571L164.198 440.603V503.46L164.306 503.523V440.603L164.252 440.571" fill="#E6CF00" fill-opacity="0.1"/>
<path d="M165.463 505.501L163.041 504.139L163.043 439.925L164.198 439.275L165.409 439.893L165.463 440.603V505.501" fill="#BEC1C6"/>
<path d="M388.937 315.353L443.421 346.809L498.031 315.285L498.045 315.295V315.095L498.099 315.068L443.495 283.54L388.885 315.068L388.937 315.095V315.353" fill="#E6CF00" fill-opacity="0.1"/>
<path d="M390.974 315.195L443.421 345.471L495.938 315.153L443.497 284.876L390.974 315.195ZM443.421 348.147L387.78 316.021V315.783L386.569 315.127L388.304 314.065L443.496 282.204L500.466 315.1L499.202 315.783V317.256L498.045 316.613L443.421 348.147" fill="#BEC1C6"/>
<path d="M443.421 346.809L388.937 315.353V378.215L388.882 378.247L443.366 409.699L443.369 346.841L443.421 346.809Z" fill="#E6CF00" fill-opacity="0.1"/>
<path d="M390.094 377.605L442.21 407.692V347.447L390.095 317.36L390.094 377.605ZM444.523 411.704L386.547 378.233L387.779 377.537V313.352L445.721 346.8L444.523 347.5V411.704" fill="#BEC1C6"/>
<path d="M498.045 315.295L498.032 315.285L443.421 346.809L443.474 346.841V409.761L443.496 409.775L498.1 378.243L498.045 378.215V315.295" fill="#E6CF00" fill-opacity="0.1"/>
<path d="M444.632 347.447V407.783L496.888 377.609V317.279L444.632 347.447ZM443.462 411.131L442.318 410.385V347.519L441.138 346.855L442.842 345.805L498.072 313.925L499.188 314.661L499.2 315.295L499.202 377.537L500.381 378.201L498.677 379.245L443.462 411.131Z" fill="#BEC1C6"/>
<path d="M443.474 409.761L443.366 409.699V409.96L443.421 409.987L443.474 409.96V409.761Z" fill="#E6CF00" fill-opacity="0.1"/>
<path d="M443.462 411.28L442.21 410.633V407.719L444.524 409.025L444.632 410.448L444.026 410.977L443.462 411.28" fill="#BEC1C6"/>
<path d="M443.421 346.809L443.369 346.841L443.366 409.699L443.474 409.761V346.841L443.421 346.809" fill="#E6CF00" fill-opacity="0.1"/>
<path d="M444.632 411.736L442.21 410.376V346.176L443.357 345.504L444.577 346.131L444.632 346.841V411.736Z" fill="#BEC1C6"/>
<path d="M609.901 127.168L664.383 158.623L718.993 127.1L719.01 127.108L719.013 126.909L719.062 126.883L664.457 95.3547L609.845 126.883L609.901 126.909V127.168Z" fill="#E6CF00" fill-opacity="0.1"/>
<path d="M611.937 127.009L664.383 157.285L716.905 126.968L664.457 96.6921L611.937 127.009ZM664.383 159.96L608.743 127.836V127.596L607.527 126.941L609.267 125.879L664.457 94.0214L721.394 126.892L720.166 127.583V128.875L719.066 128.392L664.383 159.96" fill="#BEC1C6"/>
<path d="M664.383 158.623L609.901 127.168V190.029L609.845 190.056L664.334 221.512L664.331 158.655L664.383 158.623Z" fill="#E6CF00" fill-opacity="0.1"/>
<path d="M611.057 189.424L663.177 219.511V159.26L611.057 129.173V189.424ZM665.489 223.519L607.51 190.047L608.744 189.351V125.165L666.685 158.615L665.492 159.315L665.489 223.519" fill="#BEC1C6"/>
<path d="M719.01 127.108L718.993 127.1L664.384 158.623L664.437 158.655V221.575L664.457 221.589L719.062 190.056L719.01 190.029V127.108" fill="#E6CF00" fill-opacity="0.1"/>
<path d="M665.595 159.26V219.596L717.856 189.419L717.853 129.092L665.595 159.26ZM664.47 222.917L663.281 222.259V159.315L662.138 158.647L663.805 157.62L718.981 125.771L720.147 126.417L720.166 127.108L720.169 189.365L721.313 190.037L719.642 191.06L664.47 222.917" fill="#BEC1C6"/>
<path d="M664.437 221.575L664.334 221.512V221.775L664.383 221.801L664.437 221.769V221.575" fill="#E6CF00" fill-opacity="0.1"/>
<path d="M664.437 223.103L663.177 222.448V219.492L665.491 220.852L665.595 222.248L665.007 222.783L664.437 223.103Z" fill="#BEC1C6"/>
<path d="M664.384 158.623L664.332 158.655L664.334 221.512L664.437 221.575V158.655L664.384 158.623" fill="#E6CF00" fill-opacity="0.1"/>
<path d="M665.596 223.595L663.174 222.176V157.991L664.334 157.313L665.541 157.963L665.596 158.655V223.595" fill="#BEC1C6"/>
<path d="M609.473 315.267L609.47 315.064L554.813 283.509L500.205 315.032L500.259 315.064V315.321L554.793 346.809V409.729L554.816 409.743L554.833 409.735V346.809L609.473 315.267Z" fill="#E6CF00" fill-opacity="0.1"/>
<path d="M502.297 315.164L554.81 345.485L607.333 315.168L554.816 284.844L502.297 315.164ZM554.756 411.063L553.636 410.353V347.479L499.102 315.989V315.751L497.886 315.095L499.628 314.033L554.816 282.173L610.628 314.396L610.63 315.732L610.049 316.271L555.99 347.473V410.448L554.756 411.063" fill="#BEC1C6"/>
<path d="M500.259 315.321V378.184L500.205 378.211L554.793 409.729V346.809L500.259 315.321" fill="#E6CF00" fill-opacity="0.1"/>
<path d="M501.416 377.573L553.636 407.723V347.479L501.416 317.323V377.573ZM555.949 411.732L497.869 378.197L499.102 377.505V313.319L555.949 346.14V411.732Z" fill="#BEC1C6"/>
<path d="M609.473 315.267L554.833 346.809V409.735L609.47 378.184L609.473 315.267" fill="#E6CF00" fill-opacity="0.1"/>
<path d="M555.99 347.473V407.728L608.314 377.515V317.269L555.99 347.473ZM553.676 411.736V346.14L610.63 313.265L610.628 378.848L553.676 411.736Z" fill="#BEC1C6"/>
<path d="M384.761 503.705L384.778 503.715L384.782 503.516L384.837 503.484L330.222 471.963L275.562 503.516V503.715L330.154 535.229L384.761 503.705" fill="#E6CF00" fill-opacity="0.1"/>
<path d="M277.703 503.616L330.154 533.896L382.673 503.575L330.226 473.295L277.703 503.616ZM330.154 536.567L274.405 504.379V503.045L274.983 502.513L330.222 470.627L387.186 503.508L385.939 504.199V505.54L384.819 505.008L330.154 536.567" fill="#BEC1C6"/>
<path d="M330.101 598.119V535.261L330.154 535.229L275.562 503.715V566.632L330.101 598.119" fill="#E6CF00" fill-opacity="0.1"/>
<path d="M276.718 565.968L328.943 596.117V535.868L276.718 505.716V565.968ZM331.257 600.124L274.405 567.305V501.708L332.471 535.229L331.257 535.929V600.124Z" fill="#BEC1C6"/>
<path d="M384.778 503.715L384.761 503.705L330.154 535.229L330.209 535.261V598.181L330.226 598.196L384.833 566.667L384.782 566.637L384.778 503.715Z" fill="#E6CF00" fill-opacity="0.1"/>
<path d="M331.365 535.868V596.199L383.626 566.027L383.621 505.7L331.365 535.868ZM330.203 599.541L329.047 598.824L329.051 535.929L327.89 535.261L329.575 534.227L384.765 502.369L385.921 503.04L385.935 503.715L385.939 565.963L387.097 566.632L385.41 567.665L330.203 599.541" fill="#BEC1C6"/>
<path d="M330.209 598.181L330.101 598.119L330.103 598.376L330.154 598.408L330.209 598.381V598.181" fill="#E6CF00" fill-opacity="0.1"/>
<path d="M330.209 599.7L328.943 599.057L328.947 596.121L331.261 597.449L331.365 598.865L330.769 599.392L330.209 599.7" fill="#BEC1C6"/>
<path d="M330.154 535.229L330.101 535.261V598.119L330.209 598.181V535.261L330.154 535.229" fill="#E6CF00" fill-opacity="0.1"/>
<path d="M331.365 600.18L328.943 598.792V534.593L330.101 533.924L331.31 534.561L331.365 535.261V600.18Z" fill="#BEC1C6"/>
<path d="M330.902 597.796L385.381 629.252L439.993 597.728L440.01 597.737V597.537L440.065 597.512L385.454 565.985L330.853 597.507L330.902 597.537V597.796" fill="#E6CF00" fill-opacity="0.1"/>
<path d="M332.94 597.637L385.381 627.913L437.9 597.596L385.454 567.32L332.94 597.637ZM385.381 630.589L329.745 598.465V598.22L328.552 597.56L330.269 596.508L385.454 564.649L442.433 597.541L441.166 598.229V599.631L440.027 599.037L385.381 630.589" fill="#BEC1C6"/>
<path d="M330.794 597.737L330.902 597.796V597.537L330.853 597.507L330.798 597.537L330.794 597.737Z" fill="#E6CF00" fill-opacity="0.1"/>
<path d="M332.059 599.78L329.641 598.415L329.637 597.053L330.233 596.527L330.794 596.219L332.005 596.828L332.059 597.796V599.78" fill="#BEC1C6"/>
<path d="M385.381 629.252L330.902 597.796V660.653L330.847 660.691L385.331 692.141V629.283L385.381 629.252Z" fill="#E6CF00" fill-opacity="0.1"/>
<path d="M332.059 660.048L384.175 690.139V629.888L332.059 599.803V660.048ZM386.489 694.148L328.529 660.685L329.745 659.988V595.795L387.699 629.257L386.489 629.952V694.148Z" fill="#BEC1C6"/>
<path d="M330.902 597.796L330.794 597.737L330.798 660.656L330.848 660.691L330.902 660.653V597.796Z" fill="#E6CF00" fill-opacity="0.1"/>
<path d="M330.902 661.989L329.637 661.325V595.759L331.95 597.064L332.059 597.796V661.325L330.902 661.989" fill="#BEC1C6"/>
<path d="M440.01 597.737L439.993 597.728L385.381 629.252L385.436 629.283V692.204L385.458 692.213L440.065 660.691L440.005 660.656L440.01 597.737" fill="#E6CF00" fill-opacity="0.1"/>
<path d="M386.593 629.888V690.224L438.853 660.052V599.72L386.593 629.888ZM385.467 693.54L384.278 692.885V629.943L383.135 629.273L384.802 628.248L440.016 596.377L441.149 597.087L441.166 597.737L441.162 659.981L442.346 660.645L440.642 661.688L385.467 693.54" fill="#BEC1C6"/>
<path d="M385.436 692.204L385.332 692.141V692.401L385.386 692.429L385.436 692.399V692.204" fill="#E6CF00" fill-opacity="0.1"/>
<path d="M385.44 693.727L384.17 693.085L384.176 690.133L386.489 691.477L386.593 692.877L386.005 693.411L385.44 693.727" fill="#BEC1C6"/>
<path d="M385.381 629.252L385.332 629.283V692.141L385.436 692.204V629.283L385.381 629.252" fill="#E6CF00" fill-opacity="0.1"/>
<path d="M386.593 694.215L384.176 692.809V628.609L385.336 627.947L386.544 628.588L386.593 629.283V694.215" fill="#BEC1C6"/>
<path d="M440.114 597.805L494.601 629.257L549.212 597.733L549.224 597.741V597.541L549.278 597.516L494.673 565.987L440.065 597.516L440.118 597.541L440.114 597.805Z" fill="#E6CF00" fill-opacity="0.1"/>
<path d="M442.152 597.643L494.601 627.919L547.118 597.601L494.673 567.325L442.152 597.643ZM494.601 630.589L438.962 598.471L438.957 598.216L437.782 597.556L439.486 596.513L494.673 564.652L551.652 597.547L550.381 598.233L550.385 599.703L549.224 599.06L494.601 630.589" fill="#BEC1C6"/>
<path d="M494.601 629.257L440.114 597.805V660.661L440.065 660.693L494.546 692.149L494.55 629.288L494.601 629.257" fill="#E6CF00" fill-opacity="0.1"/>
<path d="M441.27 660.052L493.389 690.144L493.394 629.893L441.275 599.807L441.27 660.052ZM495.707 694.152L437.763 660.699L438.962 659.997V595.799L496.918 629.26L495.703 629.956L495.707 694.152" fill="#BEC1C6"/>
<path d="M549.224 597.741L549.212 597.733L494.601 629.257L494.654 629.288L494.65 692.208L494.673 692.217L549.278 660.691L549.224 660.661V597.741" fill="#E6CF00" fill-opacity="0.1"/>
<path d="M495.806 629.893V690.229L548.068 660.056V599.724L495.806 629.893ZM494.681 693.551L493.497 692.885L493.493 629.952L492.354 629.279L494.021 628.253L549.256 596.368L550.368 597.115L550.381 597.741V659.984L551.561 660.649L549.861 661.693L494.681 693.551" fill="#BEC1C6"/>
<path d="M494.65 692.208L494.546 692.149V692.407L494.601 692.435L494.65 692.407V692.208" fill="#E6CF00" fill-opacity="0.1"/>
<path d="M494.66 693.731L493.389 693.091L493.394 690.139L495.704 691.485L495.806 692.885L495.224 693.411L494.66 693.731Z" fill="#BEC1C6"/>
<path d="M494.601 629.257L494.55 629.288L494.546 692.149L494.65 692.208L494.654 629.288L494.601 629.257Z" fill="#E6CF00" fill-opacity="0.1"/>
<path d="M495.812 694.215L493.389 692.815V628.619L494.554 627.951L495.757 628.596L495.806 629.288L495.812 694.215" fill="#BEC1C6"/>
<path d="M495.461 691.583L549.945 723.037L604.554 691.515L604.574 691.523V691.323L604.623 691.297L550.018 659.771L495.407 691.297L495.457 691.323L495.461 691.583" fill="#E6CF00" fill-opacity="0.1"/>
<path d="M497.5 691.424L549.945 721.704L602.462 691.381L550.022 661.101L497.5 691.424ZM549.945 724.375L494.304 692.251V691.997L493.129 691.333L494.828 690.293L550.018 658.436L606.978 691.316L605.73 692.005V693.348L604.609 692.815L549.945 724.375Z" fill="#BEC1C6"/>
<path d="M549.945 723.037L495.461 691.583V754.443L495.407 754.472L549.895 785.927V723.068L549.945 723.037" fill="#E6CF00" fill-opacity="0.1"/>
<path d="M496.618 753.833L548.738 783.925V723.675L496.618 693.584V753.833ZM551.052 787.932L493.112 754.479L494.304 753.783V689.576L552.268 723.037L551.052 723.737V787.932Z" fill="#BEC1C6"/>
<path d="M604.574 691.523L604.554 691.515L549.945 723.037L549.999 723.068V785.989L550.022 786.003L604.623 754.475L604.574 754.443V691.523Z" fill="#242000" fill-opacity="0.1"/>
<path d="M551.157 723.675V784.005L603.417 753.833V693.505L551.157 723.675ZM550.013 787.336L548.842 786.653V723.737L547.686 723.068L549.366 722.037L604.558 690.176L605.713 690.849L605.73 691.523V753.769L606.891 754.437L605.206 755.475L550.013 787.336" fill="#BEC1C6"/>
<path d="M550 785.989L549.896 785.927V786.188L549.945 786.216L550 786.188V785.989" fill="#242000" fill-opacity="0.1"/>
<path d="M549.999 787.508L548.738 786.867L548.734 783.928L551.051 785.259L551.157 786.671L550.559 787.201L549.999 787.508Z" fill="#BEC1C6"/>
<path d="M549.945 723.037L549.896 723.068V785.927L550 785.989V723.068L549.945 723.037" fill="#242000" fill-opacity="0.1"/>
<path d="M551.157 787.985L548.738 786.599V722.395L549.896 721.732L551.106 722.369L551.157 723.068V787.985Z" fill="#BEC1C6"/>
<path d="M605.334 691.587L659.819 723.037L714.426 691.509L714.447 691.523L714.442 691.323L714.497 691.293L659.89 659.769L605.281 691.297L605.334 691.323V691.587" fill="#242000" fill-opacity="0.1"/>
<path d="M607.374 691.424L659.82 721.7L712.338 691.381L659.89 661.105L607.374 691.424ZM659.82 724.375L604.182 692.251L604.178 692.001L603.002 691.339L604.708 690.293L659.89 658.433L716.829 691.305L715.604 691.997V693.289L714.501 692.808L659.82 724.375" fill="#BEC1C6"/>
<path d="M659.819 723.037L605.334 691.587V754.443L605.281 754.475L659.766 785.929L659.77 723.068L659.819 723.037Z" fill="#242000" fill-opacity="0.1"/>
<path d="M606.493 753.837L658.608 783.925V723.675L606.493 693.588V753.837ZM660.928 787.932L602.985 754.483L604.178 753.779V689.581L662.137 723.041L660.922 723.737L660.928 787.932" fill="#BEC1C6"/>
<path d="M714.447 691.523L714.426 691.509L659.819 723.037L659.874 723.068V785.989L659.89 785.999L714.497 754.472L714.442 754.443L714.447 691.523Z" fill="#E6CF00" fill-opacity="0.1"/>
<path d="M661.025 723.675L661.03 784.005L713.292 753.833V693.505L661.025 723.675ZM659.869 787.351L658.716 786.631V723.737L657.554 723.068L659.241 722.035L714.416 690.181L715.582 690.831L715.604 691.523V753.779L716.742 754.452L715.076 755.475L659.869 787.351" fill="#BEC1C6"/>
<path d="M659.874 785.989L659.766 785.929V786.188L659.819 786.216L659.874 786.184V785.989" fill="#E6CF00" fill-opacity="0.1"/>
<path d="M659.874 787.508L658.607 786.871V783.928L660.922 785.259L661.03 786.671L660.434 787.201L659.874 787.508Z" fill="#BEC1C6"/>
<path d="M659.819 723.037L659.77 723.068L659.766 785.929L659.874 785.989V723.068L659.819 723.037" fill="#E6CF00" fill-opacity="0.1"/>
<path d="M661.03 787.985L658.613 786.595V722.395L659.77 721.732L660.977 722.364L661.025 723.068L661.03 787.985" fill="#BEC1C6"/>
<path d="M662.107 597.811L716.593 629.26L771.198 597.737L771.215 597.745V597.547L771.265 597.516L716.659 565.991L662.053 597.516L662.107 597.547V597.811Z" fill="#E6CF00" fill-opacity="0.1"/>
<path d="M664.146 597.648L716.593 627.924L769.109 597.605L716.659 567.327L664.146 597.648ZM716.593 630.593L660.95 598.473V598.233L659.74 597.58L661.476 596.517L716.659 564.656L773.602 597.529L772.373 598.22V599.616L771.238 599.048L716.593 630.593" fill="#BEC1C6"/>
<path d="M716.593 629.26L662.107 597.811V660.667L662.053 660.693L716.538 692.153V629.288L716.593 629.26Z" fill="#E6CF00" fill-opacity="0.1"/>
<path d="M663.265 660.061L715.381 690.149V629.897L663.265 599.812V660.061ZM717.69 694.156L659.717 660.685L660.95 659.988V595.803L718.906 629.26L717.695 629.961L717.69 694.156Z" fill="#BEC1C6"/>
<path d="M771.215 597.745L771.198 597.737L716.593 629.26L716.641 629.292V692.213L716.659 692.225L771.27 660.693L771.215 660.667V597.745" fill="#E6CF00" fill-opacity="0.1"/>
<path d="M717.798 629.897V690.235L770.058 660.056V599.729L717.798 629.897ZM716.636 693.575L715.485 692.855V629.961L714.323 629.292L716.008 628.259L771.221 596.389L772.359 597.092L772.373 597.745V660.003L773.515 660.676L771.843 661.701L716.636 693.575" fill="#BEC1C6"/>
<path d="M716.641 692.213L716.538 692.153V692.407L716.587 692.44L716.641 692.412V692.213" fill="#E6CF00" fill-opacity="0.1"/>
<path d="M716.646 693.731L715.381 693.091V690.152L717.696 691.483L717.798 692.895L717.202 693.42L716.646 693.731Z" fill="#BEC1C6"/>
<path d="M716.593 629.26L716.538 629.288V692.153L716.641 692.213V629.292L716.593 629.26" fill="#E6CF00" fill-opacity="0.1"/>
<path d="M717.798 694.215L715.377 692.823V628.623L716.533 627.959L717.743 628.593L717.798 629.292V694.215Z" fill="#BEC1C6"/>
<path d="M716.566 691.567L771.05 723.023L825.658 691.499L825.674 691.509V691.311L825.729 691.277L771.122 659.755L716.508 691.277L716.566 691.311V691.567" fill="#E6CF00" fill-opacity="0.1"/>
<path d="M718.601 691.411L771.05 721.691L823.569 691.369L771.122 661.092L718.601 691.411ZM771.05 724.361L715.41 692.236V692.001L714.194 691.341L715.93 690.279L771.122 658.421L828.083 691.301L826.831 691.992V693.335L825.714 692.803L771.05 724.361" fill="#BEC1C6"/>
<path d="M771.05 723.023L716.566 691.567V754.429L716.513 754.456L771.001 785.913L770.997 723.055L771.05 723.023" fill="#E6CF00" fill-opacity="0.1"/>
<path d="M717.723 753.819L769.839 783.911V723.665L717.719 693.569L717.723 753.819ZM772.154 787.919L714.171 754.448L715.41 753.752L715.406 689.561L773.35 723.016L772.158 723.713L772.154 787.919" fill="#BEC1C6"/>
<path d="M825.674 691.509L825.658 691.499L771.05 723.023L771.105 723.055V785.976L771.122 785.989L825.729 754.456L825.674 754.429V691.509" fill="#E6CF00" fill-opacity="0.1"/>
<path d="M772.262 723.661V783.992L824.518 753.819V693.493L772.262 723.661ZM771.118 787.323L769.947 786.636V723.724L768.786 723.055L770.473 722.021L825.661 690.163L826.814 690.835L826.831 691.509L826.837 753.757L827.993 754.427L826.307 755.46L771.118 787.323" fill="#BEC1C6"/>
<path d="M771.105 785.976L771.001 785.913L770.997 786.175L771.05 786.203L771.105 786.175V785.976Z" fill="#E6CF00" fill-opacity="0.1"/>
<path d="M771.101 787.499L769.843 786.847L769.839 783.907L772.158 785.248L772.262 786.659L771.665 787.187L771.101 787.499" fill="#BEC1C6"/>
<path d="M771.05 723.023L770.997 723.055L771.001 785.913L771.105 785.976V723.055L771.05 723.023Z" fill="#E6CF00" fill-opacity="0.1"/>
<path d="M772.262 787.985L769.839 786.581V722.392L770.993 721.717L772.209 722.356L772.262 723.055V787.985" fill="#BEC1C6"/>
<path d="M771.794 597.791L826.282 629.243L880.887 597.715L880.906 597.728V597.529L880.961 597.501L826.35 565.975L771.743 597.497L771.799 597.529L771.794 597.791Z" fill="#E6CF00" fill-opacity="0.1"/>
<path d="M773.835 597.628L826.282 627.909L878.795 597.588L826.35 567.311L773.835 597.628ZM826.278 630.576L770.642 598.455L770.638 598.207L769.463 597.541L771.165 596.497L826.35 564.64L883.31 597.52L882.062 598.211V599.553L880.942 599.021L826.278 630.576" fill="#BEC1C6"/>
<path d="M826.282 629.243L771.794 597.791V660.649L771.743 660.676L826.227 692.136V629.273L826.282 629.243" fill="#E6CF00" fill-opacity="0.1"/>
<path d="M772.955 660.037L825.071 690.131V629.88L772.955 599.792V660.037ZM827.385 694.137L769.443 660.685L770.642 659.984V595.785L828.578 629.233L827.385 629.932V694.137" fill="#BEC1C6"/>
<path d="M880.906 597.728L880.888 597.715L826.282 629.243L826.332 629.273V692.195L826.356 692.204L880.961 660.68L880.906 660.649V597.728" fill="#E6CF00" fill-opacity="0.1"/>
<path d="M827.49 629.884V690.215L879.749 660.043V599.712L827.49 629.884ZM826.365 693.537L825.175 692.872V629.932L824.033 629.265L825.701 628.24L880.893 596.38L882.041 597.053L882.062 597.728V659.976L883.225 660.645L881.541 661.679L826.365 693.537" fill="#BEC1C6"/>
<path d="M826.332 692.195L826.228 692.136V692.395L826.282 692.421L826.332 692.395V692.195Z" fill="#E6CF00" fill-opacity="0.1"/>
<path d="M826.331 693.717L825.072 693.067V690.111L827.385 691.472L827.49 692.868L826.902 693.396L826.331 693.717" fill="#BEC1C6"/>
<path d="M826.282 629.243L826.228 629.273V692.136L826.332 692.195V629.273L826.282 629.243Z" fill="#E6CF00" fill-opacity="0.1"/>
<path d="M827.49 694.215L825.072 692.796V628.609L826.228 627.931L827.436 628.577L827.49 629.273V694.215" fill="#BEC1C6"/>
<path d="M826.255 691.572L880.739 723.028L935.35 691.504L935.367 691.515V691.316L935.422 691.288L880.811 659.76L826.206 691.288L826.255 691.316V691.572" fill="#E6CF00" fill-opacity="0.1"/>
<path d="M828.293 691.415L880.739 721.696L933.263 691.377L880.811 661.093L828.293 691.415ZM880.739 724.361L825.099 692.241V691.992L823.923 691.328L825.627 690.284L880.811 658.427L937.789 691.319L936.521 692.001V693.475L935.365 692.833L880.739 724.361" fill="#BEC1C6"/>
<path d="M880.739 723.028L826.255 691.572V754.435L826.206 754.467L880.685 785.923V723.06L880.739 723.028" fill="#E6CF00" fill-opacity="0.1"/>
<path d="M827.413 753.824L879.528 783.915V723.665L827.413 693.579V753.824ZM881.841 787.924L823.906 754.472L825.1 753.769V689.571L883.057 723.028L881.846 723.729L881.841 787.924Z" fill="#BEC1C6"/>
<path d="M935.367 691.515L935.35 691.504L880.74 723.028L880.794 723.06V785.98L880.812 785.989L935.422 754.467L935.365 754.435L935.367 691.515" fill="#E6CF00" fill-opacity="0.1"/>
<path d="M881.95 723.665L881.945 784L934.211 753.828L934.207 693.497L881.95 723.665ZM880.821 787.323L879.637 786.664V723.719L878.493 723.045L880.161 722.025L935.395 690.144L936.506 690.88L936.525 691.515L936.521 753.757L937.701 754.421L935.999 755.464L880.821 787.323" fill="#BEC1C6"/>
<path d="M880.794 785.98L880.685 785.923V786.175L880.74 786.205L880.789 786.18L880.794 785.98Z" fill="#E6CF00" fill-opacity="0.1"/>
<path d="M880.798 787.504L879.527 786.863V783.911L881.841 785.253L881.945 786.659L881.362 787.181L880.798 787.504" fill="#BEC1C6"/>
<path d="M880.74 723.028L880.685 723.06V785.923L880.794 785.98V723.06L880.74 723.028Z" fill="#E6CF00" fill-opacity="0.1"/>
<path d="M881.945 787.985L879.527 786.587V722.392L880.695 721.723L881.897 722.369L881.945 723.06V787.985Z" fill="#BEC1C6"/>
<path d="M497.041 503.765L551.525 535.221L606.134 503.699L606.154 503.705V503.508L606.202 503.48L551.597 471.953L496.991 503.48L497.041 503.508V503.765" fill="#E6CF00" fill-opacity="0.1"/>
<path d="M499.078 503.607L551.525 533.888L604.042 503.571L551.597 473.288L499.078 503.607ZM551.525 536.559L495.883 504.433V504.175L494.726 503.508L496.407 502.479L551.597 470.62L608.535 503.488L607.31 504.18V505.595L606.17 505.013L551.525 536.559" fill="#BEC1C6"/>
<path d="M551.525 535.221L497.041 503.765V566.627L496.991 566.659L551.474 598.109V535.253L551.525 535.221Z" fill="#E6CF00" fill-opacity="0.1"/>
<path d="M498.197 566.017L550.318 596.108V535.863L498.197 505.767V566.017ZM552.631 600.117L494.709 566.677L495.883 565.972V501.759L553.815 535.211L552.631 535.913V600.117" fill="#BEC1C6"/>
<path d="M606.154 503.705L606.134 503.699L551.525 535.221L551.574 535.253V598.173L551.597 598.181L606.202 566.653L606.154 566.627V503.705" fill="#E6CF00" fill-opacity="0.1"/>
<path d="M552.731 535.863V596.199L604.995 566.017V505.689L552.731 535.863ZM551.591 599.524L550.417 598.828V535.913L549.278 535.239L550.946 534.217L606.158 502.345L607.291 503.056L607.31 503.705V565.949L608.485 566.613L606.781 567.657L551.591 599.524" fill="#BEC1C6"/>
<path d="M551.574 598.173L551.474 598.109V598.367L551.525 598.399L551.574 598.371V598.173" fill="#E6CF00" fill-opacity="0.1"/>
<path d="M551.574 599.7L550.318 599.045V596.103L552.631 597.445L552.731 598.841L552.143 599.375L551.574 599.7Z" fill="#BEC1C6"/>
<path d="M551.525 535.221L551.474 535.253V598.109L551.574 598.173V535.253L551.525 535.221Z" fill="#E6CF00" fill-opacity="0.1"/>
<path d="M552.731 600.18L550.318 598.779V534.593L551.474 533.907L552.682 534.561L552.731 535.253V600.18" fill="#BEC1C6"/>
<path d="M274.629 691.583L329.117 723.037L383.733 691.515L383.745 691.523L383.741 691.323L383.799 691.297L329.189 659.769L274.578 691.297L274.629 691.323V691.583" fill="#E6CF00" fill-opacity="0.1"/>
<path d="M276.671 691.424L329.117 721.7L381.639 691.381L329.189 661.105L276.671 691.424ZM329.117 724.371L273.471 692.251V691.969L272.374 691.288L274.001 690.293L329.189 658.436L386.167 691.328L384.902 692.015V693.488L383.741 692.841L329.117 724.371" fill="#BEC1C6"/>
<path d="M329.117 723.037L274.629 691.583V754.443L274.578 754.472L329.062 785.929V723.068L329.117 723.037" fill="#E6CF00" fill-opacity="0.1"/>
<path d="M275.785 753.833L327.906 783.925V723.675L275.785 693.588V753.833ZM330.219 787.932L272.327 754.507L273.471 753.797V689.581L331.454 723.051L330.219 723.748V787.932" fill="#BEC1C6"/>
<path d="M383.745 691.523L383.733 691.515L329.117 723.037L329.166 723.068V785.989L329.189 786.003L383.795 754.475L383.741 754.443L383.745 691.523" fill="#E6CF00" fill-opacity="0.1"/>
<path d="M330.324 723.675V784.011L382.584 753.837L382.589 693.511L330.324 723.675ZM329.198 787.331L328.01 786.671V723.729L326.866 723.06L328.54 722.035L383.773 690.149L384.889 690.895L384.902 691.523L384.898 753.765L386.077 754.429L384.374 755.475L329.198 787.331" fill="#BEC1C6"/>
<path d="M329.166 785.989L329.062 785.929V786.184L329.117 786.216L329.166 786.184V785.989Z" fill="#E6CF00" fill-opacity="0.1"/>
<path d="M329.181 787.508L327.906 786.875V783.928L330.22 785.259L330.324 786.664L329.741 787.192L329.181 787.508Z" fill="#BEC1C6"/>
<path d="M329.117 723.037L329.062 723.068V785.929L329.166 785.989V723.068L329.117 723.037Z" fill="#E6CF00" fill-opacity="0.1"/>
<path d="M330.324 787.985L327.906 786.599V722.392L329.073 721.735L330.274 722.377L330.324 723.068V787.985" fill="#BEC1C6"/>
<path d="M437.831 785.972L492.321 817.427L546.931 785.904L546.942 785.915V785.715L546.998 785.683L492.394 754.159L437.786 785.688L437.831 785.715V785.972" fill="#E6CF00" fill-opacity="0.1"/>
<path d="M439.874 785.815L492.321 816.091L544.843 785.773L492.393 755.495L439.874 785.815ZM492.321 818.76L436.675 786.641V786.373L435.541 785.703L437.203 784.685L492.394 752.825L549.271 785.66L548.101 786.371V787.875L546.943 787.233L492.321 818.76" fill="#BEC1C6"/>
<path d="M492.321 817.427L437.832 785.972L437.836 848.835L437.782 848.867L492.262 880.316V817.461L492.321 817.427Z" fill="#E6CF00" fill-opacity="0.1"/>
<path d="M438.989 848.224L491.106 878.312V818.061L438.989 787.975V848.224ZM493.418 882.317L435.522 848.893L436.676 848.185V783.971L494.63 817.425L493.421 818.124L493.418 882.317" fill="#BEC1C6"/>
<path d="M546.942 785.915L546.931 785.904L492.321 817.427L492.377 817.461L492.374 880.38L492.394 880.395L546.998 848.867L546.943 848.835L546.942 785.915Z" fill="#E6CF00" fill-opacity="0.1"/>
<path d="M493.532 818.061V878.396L545.788 848.229V787.899L493.532 818.061ZM492.372 881.74L491.217 881.023V818.124L490.065 817.456L491.742 816.425L546.974 784.544L548.088 785.28L548.101 785.915V848.169L549.246 848.839L547.576 849.871L492.372 881.74" fill="#BEC1C6"/>
<path d="M492.374 880.38L492.262 880.316L492.264 880.58L492.321 880.605L492.374 880.58V880.38Z" fill="#E6CF00" fill-opacity="0.1"/>
<path d="M492.377 881.904L491.106 881.257V878.343L493.418 879.641L493.534 881.059L492.938 881.584L492.377 881.904" fill="#BEC1C6"/>
<path d="M492.321 817.427L492.262 817.461V880.316L492.374 880.38L492.377 817.461L492.321 817.427" fill="#E6CF00" fill-opacity="0.1"/>
<path d="M493.531 882.357L491.105 880.996L491.106 816.792L492.263 816.123L493.477 816.76L493.534 817.461L493.531 882.357Z" fill="#BEC1C6"/>
<path d="M492.767 879.735L547.251 911.191L601.858 879.667L601.878 879.676L601.875 879.477L601.93 879.445L547.325 847.923L492.714 879.445L492.767 879.477V879.735" fill="#E6CF00" fill-opacity="0.1"/>
<path d="M494.801 879.576L547.252 909.858L599.77 879.536L547.325 849.259L494.801 879.576ZM547.252 912.524L491.61 880.404L491.613 880.147L490.461 879.477L492.134 878.441L547.325 846.587L604.262 879.459L603.036 880.153V881.443L601.93 880.96L547.252 912.524" fill="#BEC1C6"/>
<path d="M547.251 911.191L492.767 879.735V942.595L492.714 942.629L547.198 974.085V911.221L547.251 911.191Z" fill="#E6CF00" fill-opacity="0.1"/>
<path d="M493.925 941.99L546.041 972.077V911.828L493.927 881.74L493.925 941.99ZM548.354 976.087L490.373 942.609L491.61 941.918V877.733L549.585 911.204L548.354 911.9V976.087Z" fill="#BEC1C6"/>
<path d="M601.878 879.676L601.858 879.667L547.251 911.191L547.306 911.221V974.142L547.325 974.156L601.93 942.624L601.878 942.595V879.676" fill="#E6CF00" fill-opacity="0.1"/>
<path d="M548.463 911.828V972.163L600.718 941.985L600.721 881.659L548.463 911.828ZM547.301 975.503L546.149 974.784V911.9L544.969 911.236L546.673 910.187L601.843 878.337L603.014 878.983L603.035 879.676L603.033 941.932L604.177 942.606L602.507 943.627L547.301 975.503" fill="#BEC1C6"/>
<path d="M547.252 911.191L547.198 911.221V974.085L547.306 974.142V911.221L547.252 911.191Z" fill="#E6CF00" fill-opacity="0.1"/>
<path d="M548.463 976.121L546.041 974.761V910.544L547.198 909.893L548.409 910.513L548.463 911.221V976.121" fill="#BEC1C6"/>
<path d="M382.101 879.739L436.579 911.191L491.193 879.667L491.209 879.676V879.477L491.261 879.449L436.653 847.923L382.047 879.445L382.098 879.477L382.101 879.739Z" fill="#E6CF00" fill-opacity="0.1"/>
<path d="M384.134 879.576L436.58 909.857L489.101 879.536L436.653 849.257L384.134 879.576ZM436.58 912.529L380.944 880.404V880.163L379.728 879.508L381.468 878.445L436.656 846.589L493.59 879.459L492.366 880.151V881.471L491.256 880.964L436.58 912.529" fill="#BEC1C6"/>
<path d="M436.579 911.191L382.101 879.739V942.595L382.047 942.624L436.526 974.08V911.221L436.579 911.191" fill="#E6CF00" fill-opacity="0.1"/>
<path d="M383.258 941.99L435.369 972.077V911.828L383.258 881.74V941.99ZM437.684 976.087L379.71 942.609L380.944 941.918V877.733L438.917 911.204L437.684 911.896V976.087Z" fill="#BEC1C6"/>
<path d="M491.209 879.676L491.193 879.667L436.58 911.191L436.634 911.221V974.142L436.653 974.151L491.258 942.629L491.209 942.595V879.676Z" fill="#E6CF00" fill-opacity="0.1"/>
<path d="M437.791 911.828V972.159L490.051 941.985V881.659L437.791 911.828ZM436.631 975.503L435.477 974.784V911.896L434.298 911.236L436.001 910.187L491.186 878.333L492.347 878.993L492.366 879.676V941.932L493.509 942.6L491.837 943.627L436.631 975.503" fill="#BEC1C6"/>
<path d="M436.579 911.191L436.526 911.221V974.08L436.634 974.142V911.221L436.579 911.191" fill="#E6CF00" fill-opacity="0.1"/>
<path d="M437.792 976.121L435.369 974.757L435.372 910.544L436.526 909.893L437.737 910.513L437.792 911.221V976.121" fill="#BEC1C6"/>
<path d="M661.266 785.972L715.749 817.427L770.359 785.904L770.374 785.915V785.715L770.427 785.688L715.823 754.159L661.214 785.688L661.266 785.715V785.972Z" fill="#E6CF00" fill-opacity="0.1"/>
<path d="M663.304 785.815L715.749 816.091L768.268 785.773L715.826 755.495L663.304 785.815ZM715.749 818.765L660.108 786.641V786.403L658.897 785.747L660.633 784.685L715.824 752.823L772.796 785.719L771.53 786.403V787.875L770.374 787.233L715.749 818.765" fill="#BEC1C6"/>
<path d="M715.749 817.427L661.266 785.972V848.835L661.211 848.867L715.695 880.316L715.697 817.461L715.749 817.427" fill="#E6CF00" fill-opacity="0.1"/>
<path d="M662.422 848.224L714.54 878.312V818.065L662.423 787.98L662.422 848.224ZM716.851 882.323L658.878 848.853L660.108 848.156V783.971L718.049 817.42L716.851 818.12V882.323" fill="#BEC1C6"/>
<path d="M770.374 785.915L770.359 785.904L715.749 817.427L715.803 817.461V880.38L715.823 880.395L770.427 848.861L770.374 848.835V785.915Z" fill="#E6CF00" fill-opacity="0.1"/>
<path d="M716.961 818.065V878.401L769.216 848.229V787.899L716.961 818.065ZM715.789 881.751L714.648 881.004V818.137L713.468 817.473L715.169 816.425L770.4 784.544L771.516 785.28L771.528 785.915L771.53 848.156L772.71 848.82L771.005 849.865L715.789 881.751" fill="#BEC1C6"/>
<path d="M715.803 880.38L715.695 880.316V880.58L715.749 880.605L715.803 880.58V880.38" fill="#E6CF00" fill-opacity="0.1"/>
<path d="M715.789 881.899L714.54 881.253V878.337L716.852 879.644L716.961 881.068L716.354 881.596L715.789 881.899" fill="#BEC1C6"/>
<path d="M715.749 817.427L715.697 817.461L715.695 880.316L715.803 880.38V817.461L715.749 817.427" fill="#E6CF00" fill-opacity="0.1"/>
<path d="M716.961 882.357L714.54 880.996V816.797L715.685 816.123L716.905 816.752L716.961 817.461V882.357Z" fill="#BEC1C6"/>
<path d="M882.229 597.787L936.713 629.243L991.321 597.719L991.338 597.728L991.341 597.529L991.39 597.501L936.785 565.975L882.173 597.501L882.229 597.529V597.787" fill="#E6CF00" fill-opacity="0.1"/>
<path d="M884.266 597.628L936.713 627.905L989.233 597.588L936.785 567.311L884.266 597.628ZM936.713 630.58L881.072 598.455V598.216L879.857 597.56L881.596 596.497L936.785 564.64L993.722 597.512L992.494 598.204V599.495L991.394 599.011L936.713 630.58Z" fill="#BEC1C6"/>
<path d="M936.713 629.243L882.229 597.787V660.649L882.173 660.676L936.662 692.132L936.66 629.273L936.713 629.243" fill="#E6CF00" fill-opacity="0.1"/>
<path d="M883.385 660.043L935.506 690.131V629.88L883.385 599.792V660.043ZM937.818 694.137L879.838 660.667L881.071 659.971V595.785L939.013 629.233L937.821 629.932L937.818 694.137Z" fill="#BEC1C6"/>
<path d="M991.338 597.728L991.321 597.719L936.713 629.243L936.766 629.273V692.195L936.785 692.208L991.39 660.676L991.338 660.649V597.728" fill="#E6CF00" fill-opacity="0.1"/>
<path d="M937.924 629.88V690.215L990.184 660.037L990.181 599.712L937.924 629.88ZM936.798 693.537L935.609 692.877V629.932L934.466 629.265L936.133 628.24L991.31 596.389L992.476 597.037L992.494 597.728L992.497 659.984L993.641 660.656L991.972 661.679L936.798 693.537Z" fill="#BEC1C6"/>
<path d="M936.766 692.195L936.662 692.132V692.395L936.713 692.421L936.766 692.389V692.195Z" fill="#E6CF00" fill-opacity="0.1"/>
<path d="M936.766 693.721L935.506 693.067V690.111L937.821 691.472L937.923 692.868L937.335 693.401L936.766 693.721Z" fill="#BEC1C6"/>
<path d="M936.713 629.243L936.659 629.273L936.662 692.132L936.766 692.195V629.273L936.713 629.243" fill="#E6CF00" fill-opacity="0.1"/>
<path d="M937.923 694.215L935.503 692.796V628.609L936.662 627.931L937.869 628.583L937.923 629.273V694.215" fill="#BEC1C6"/>
<path d="M217.991 597.787L272.475 629.243L327.086 597.719L327.099 597.728V597.529L327.154 597.497L272.547 565.975L217.937 597.501L217.991 597.529V597.787" fill="#E6CF00" fill-opacity="0.1"/>
<path d="M220.029 597.628L272.476 627.909L324.993 597.588L272.548 567.311L220.029 597.628ZM272.476 630.576L216.834 598.455V598.22L215.624 597.56L217.358 596.497L272.548 564.639L329.485 597.512L328.256 598.207V599.689L327.097 599.048L272.476 630.576Z" fill="#BEC1C6"/>
<path d="M272.475 629.243L217.991 597.787L217.993 660.649L217.937 660.676L272.423 692.136L272.421 629.273L272.475 629.243" fill="#E6CF00" fill-opacity="0.1"/>
<path d="M219.149 660.043L271.265 690.131V629.88L219.15 599.792L219.149 660.043ZM273.578 694.137L215.604 660.667L216.834 659.971V595.785L274.776 629.233L273.578 629.932V694.137Z" fill="#BEC1C6"/>
<path d="M327.1 597.728L327.086 597.719L272.476 629.243L272.525 629.273V692.195L272.548 692.208L327.154 660.676L327.1 660.649V597.728" fill="#E6CF00" fill-opacity="0.1"/>
<path d="M273.685 629.88L273.682 690.215L325.942 660.037V599.717L273.685 629.88ZM272.558 693.537L271.368 692.877L271.37 629.932L270.228 629.265L271.897 628.24L327.132 596.359L328.242 597.095L328.256 597.728L328.258 659.984L329.4 660.656L327.733 661.679L272.558 693.537" fill="#BEC1C6"/>
<path d="M272.525 692.195L272.424 692.136L272.421 692.395L272.476 692.421L272.525 692.395V692.195Z" fill="#E6CF00" fill-opacity="0.1"/>
<path d="M272.528 693.721L271.265 693.067V690.111L273.578 691.472L273.685 692.872L273.094 693.396L272.528 693.721" fill="#BEC1C6"/>
<path d="M272.476 629.243L272.421 629.273L272.424 692.136L272.525 692.195V629.273L272.476 629.243Z" fill="#E6CF00" fill-opacity="0.1"/>
<path d="M273.682 694.215L271.265 692.796V628.609L272.421 627.931L273.63 628.577L273.682 629.273V694.215" fill="#BEC1C6"/>
<path d="M881.801 785.887L881.8 785.683L827.141 754.129L772.534 785.651L772.587 785.683V785.94L827.121 817.427V880.349L827.143 880.363L827.161 880.355V817.427L881.801 785.887" fill="#E6CF00" fill-opacity="0.1"/>
<path d="M774.625 785.784L827.138 816.104L879.661 785.787L827.143 755.464L774.625 785.784ZM827.085 881.683L825.963 880.973V818.096L771.431 786.609V786.371L770.214 785.715L771.955 784.652L827.143 752.793L882.955 785.013L882.958 786.352L882.378 786.889L828.318 818.092V881.068L827.085 881.683" fill="#BEC1C6"/>
<path d="M772.588 785.94V848.804L772.534 848.831L827.121 880.349V817.427L772.588 785.94Z" fill="#E6CF00" fill-opacity="0.1"/>
<path d="M773.745 848.192L825.964 878.343V818.096L773.745 787.943V848.192ZM828.277 882.352L770.198 848.816L771.432 848.124V783.939L828.277 816.76V882.352" fill="#BEC1C6"/>
<path d="M881.801 785.887L827.161 817.427V880.355L881.8 848.804L881.801 785.887" fill="#E6CF00" fill-opacity="0.1"/>
<path d="M828.318 818.092V878.348L880.642 848.135V787.888L828.318 818.092ZM826.003 882.357V816.76L882.958 783.884L882.955 849.468L826.003 882.357" fill="#BEC1C6"/>
</svg>
