<svg width="225" height="43" viewBox="0 0 225 43" fill="none" xmlns="http://www.w3.org/2000/svg">
<path d="M7.9485 7.84973L0 21.4999L7.9485 35.1502L15.897 21.4999L7.9485 7.84973Z" fill="#CCB800"/>
<path d="M33.2798 20.6537L25.3313 7.04028H9.39713L17.3827 20.6537H33.2798Z" fill="#E6CF00"/>
<path d="M9.39713 35.9597H25.3313L33.2798 22.3463H17.3827L9.39713 35.9597Z" fill="#CCB800"/>
<path d="M51.5923 34.744C49.6707 34.744 47.9691 34.3426 46.4874 33.54C45.0289 32.7373 43.883 31.648 43.0495 30.272C42.2392 28.873 41.8341 27.2792 41.8341 25.4904C41.8341 24.0685 42.0656 22.7728 42.5286 21.6032C42.9916 20.4336 43.6283 19.4245 44.4386 18.576C45.272 17.7045 46.2559 17.0394 47.3903 16.5808C48.5479 16.0992 49.8096 15.8584 51.1756 15.8584C52.3794 15.8584 53.5022 16.0877 54.544 16.5464C55.5858 17.005 56.4887 17.6357 57.2527 18.4384C58.0167 19.2181 58.5955 20.1584 58.9891 21.2592C59.4058 22.337 59.6026 23.5181 59.5794 24.8024L59.5447 26.2816H44.7164L43.9177 23.392H55.9678L55.4122 23.9768V23.22C55.3428 22.509 55.1112 21.8898 54.7177 21.3624C54.3241 20.812 53.8148 20.3877 53.1897 20.0896C52.5878 19.7685 51.9164 19.608 51.1756 19.608C50.0411 19.608 49.0804 19.8258 48.2932 20.2616C47.5293 20.6973 46.9505 21.328 46.5569 22.1536C46.1633 22.9562 45.9666 23.9653 45.9666 25.1808C45.9666 26.3504 46.2096 27.3709 46.6958 28.2424C47.2051 29.1138 47.9112 29.7904 48.8141 30.272C49.7402 30.7306 50.8167 30.96 52.0437 30.96C52.9003 30.96 53.6874 30.8224 54.4051 30.5472C55.1228 30.272 55.8984 29.7789 56.7318 29.068L58.8502 31.992C58.2251 32.5653 57.5074 33.0584 56.6971 33.4712C55.91 33.861 55.0765 34.1706 54.1968 34.4C53.317 34.6293 52.4489 34.744 51.5923 34.744ZM74.4403 34.744C72.6808 34.744 71.0718 34.4458 69.6133 33.8496C68.1547 33.2533 66.893 32.4048 65.828 31.304C64.7631 30.1802 63.9297 28.8616 63.3277 27.348C62.7489 25.8114 62.4596 24.1373 62.4596 22.3256C62.4596 20.5826 62.7721 18.9658 63.3972 17.4752C64.0223 15.9845 64.8904 14.6773 66.0017 13.5536C67.1129 12.4298 68.4094 11.5584 69.8911 10.9392C71.3727 10.32 72.9817 10.0104 74.7181 10.0104C75.8988 10.0104 77.0448 10.1824 78.156 10.5264C79.2673 10.8704 80.2859 11.352 81.212 11.9712C82.138 12.5674 82.9136 13.2669 83.5387 14.0696L80.6563 17.2C80.0544 16.5808 79.4293 16.0648 78.7811 15.652C78.156 15.2162 77.4962 14.8952 76.8017 14.6888C76.1303 14.4594 75.4358 14.3448 74.7181 14.3448C73.6531 14.3448 72.6461 14.5397 71.6969 14.9296C70.7708 15.3194 69.9605 15.8698 69.266 16.5808C68.5946 17.2917 68.0621 18.1402 67.6686 19.1264C67.275 20.0896 67.0782 21.1674 67.0782 22.36C67.0782 23.5754 67.2634 24.6762 67.6338 25.6624C68.0274 26.6485 68.5715 27.497 69.266 28.208C69.9837 28.9189 70.8287 29.4693 71.801 29.8592C72.7965 30.2261 73.8846 30.4096 75.0653 30.4096C75.8293 30.4096 76.5702 30.3064 77.2879 30.1C78.0055 29.8936 78.6653 29.6069 79.2673 29.24C79.8924 28.8501 80.4596 28.4029 80.9689 27.8984L83.1914 31.4416C82.6358 32.0608 81.8949 32.6226 80.9689 33.1272C80.0428 33.6317 79.001 34.033 77.8435 34.3312C76.7091 34.6064 75.5747 34.744 74.4403 34.744ZM95.4709 34.744C93.642 34.744 92.0098 34.3426 90.5744 33.54C89.1391 32.7144 88.0047 31.5906 87.1712 30.1688C86.3378 28.7469 85.9211 27.1301 85.9211 25.3184C85.9211 23.5066 86.3378 21.8898 87.1712 20.468C88.0047 19.0461 89.1391 17.9338 90.5744 17.1312C92.0098 16.3056 93.642 15.8928 95.4709 15.8928C97.2767 15.8928 98.8973 16.3056 100.333 17.1312C101.768 17.9338 102.891 19.0461 103.701 20.468C104.535 21.8898 104.951 23.5066 104.951 25.3184C104.951 27.1301 104.535 28.7469 103.701 30.1688C102.891 31.5906 101.768 32.7144 100.333 33.54C98.8973 34.3426 97.2767 34.744 95.4709 34.744ZM95.4709 30.9944C96.4664 30.9944 97.3461 30.7421 98.1101 30.2376C98.8973 29.733 99.5108 29.0565 99.9506 28.208C100.414 27.3594 100.634 26.3962 100.61 25.3184C100.634 24.2176 100.414 23.2429 99.9506 22.3944C99.5108 21.5458 98.8973 20.8808 98.1101 20.3992C97.3461 19.8946 96.4664 19.6424 95.4709 19.6424C94.4754 19.6424 93.5725 19.8946 92.7622 20.3992C91.9751 20.8808 91.3616 21.5573 90.9217 22.4288C90.4818 23.2773 90.2619 24.2405 90.2619 25.3184C90.2619 26.3962 90.4818 27.3594 90.9217 28.208C91.3616 29.0565 91.9751 29.733 92.7622 30.2376C93.5725 30.7421 94.4754 30.9944 95.4709 30.9944ZM108.702 34.4V16.2712H112.904L112.974 19.9176L112.279 20.1928C112.488 19.5965 112.8 19.0461 113.217 18.5416C113.634 18.0141 114.131 17.5669 114.71 17.2C115.289 16.8101 115.902 16.512 116.551 16.3056C117.199 16.0762 117.859 15.9616 118.53 15.9616C119.526 15.9616 120.405 16.1221 121.169 16.4432C121.956 16.7413 122.605 17.2229 123.114 17.888C123.647 18.553 124.04 19.4016 124.295 20.4336L123.635 20.296L123.913 19.7456C124.167 19.1952 124.526 18.7021 124.989 18.2664C125.452 17.8077 125.973 17.4064 126.552 17.0624C127.131 16.6954 127.733 16.4202 128.358 16.2368C129.006 16.0533 129.643 15.9616 130.268 15.9616C131.657 15.9616 132.814 16.2368 133.74 16.7872C134.666 17.3376 135.361 18.1746 135.824 19.2984C136.287 20.4221 136.519 21.8096 136.519 23.4608V34.4H132.212V23.736C132.212 22.8186 132.085 22.0618 131.83 21.4656C131.599 20.8693 131.229 20.4336 130.719 20.1584C130.233 19.8602 129.62 19.7112 128.879 19.7112C128.3 19.7112 127.744 19.8144 127.212 20.0208C126.702 20.2042 126.263 20.4794 125.892 20.8464C125.522 21.1904 125.232 21.5917 125.024 22.0504C124.816 22.509 124.711 23.0136 124.711 23.564V34.4H120.405V23.7016C120.405 22.8301 120.278 22.1077 120.023 21.5344C119.769 20.9381 119.398 20.4909 118.912 20.1928C118.426 19.8717 117.836 19.7112 117.141 19.7112C116.562 19.7112 116.018 19.8144 115.509 20.0208C115 20.2042 114.56 20.468 114.189 20.812C113.819 21.156 113.529 21.5573 113.321 22.016C113.113 22.4746 113.009 22.9792 113.009 23.5296V34.4H108.702ZM141.26 41.968V16.2712H145.462L145.532 20.3992L144.802 20.0896C144.941 19.3786 145.335 18.7136 145.983 18.0944C146.631 17.4522 147.418 16.9362 148.344 16.5464C149.294 16.1565 150.278 15.9616 151.296 15.9616C152.917 15.9616 154.352 16.3629 155.602 17.1656C156.876 17.9682 157.871 19.069 158.589 20.468C159.33 21.8669 159.7 23.4837 159.7 25.3184C159.7 27.1301 159.33 28.7469 158.589 30.1688C157.871 31.5677 156.876 32.68 155.602 33.5056C154.352 34.3082 152.94 34.7096 151.366 34.7096C150.301 34.7096 149.27 34.5032 148.275 34.0904C147.303 33.6776 146.469 33.1386 145.775 32.4736C145.103 31.8085 144.687 31.109 144.525 30.3752L145.566 29.8936V41.968H141.26ZM150.497 30.96C151.47 30.96 152.338 30.7192 153.102 30.2376C153.866 29.756 154.456 29.0909 154.873 28.2424C155.313 27.3938 155.533 26.4192 155.533 25.3184C155.533 24.2176 155.325 23.2544 154.908 22.4288C154.491 21.5802 153.901 20.9152 153.137 20.4336C152.373 19.952 151.493 19.7112 150.497 19.7112C149.479 19.7112 148.588 19.952 147.824 20.4336C147.083 20.8922 146.492 21.5458 146.052 22.3944C145.613 23.2429 145.393 24.2176 145.393 25.3184C145.393 26.4192 145.613 27.3938 146.052 28.2424C146.492 29.0909 147.083 29.756 147.824 30.2376C148.588 30.7192 149.479 30.96 150.497 30.96ZM170.418 34.744C168.913 34.744 167.547 34.3312 166.32 33.5056C165.093 32.68 164.109 31.5562 163.368 30.1344C162.627 28.7125 162.257 27.0957 162.257 25.284C162.257 23.4722 162.627 21.8554 163.368 20.4336C164.109 19.0117 165.116 17.8994 166.389 17.0968C167.663 16.2941 169.098 15.8928 170.695 15.8928C171.621 15.8928 172.466 16.0304 173.23 16.3056C173.994 16.5578 174.666 16.9248 175.245 17.4064C175.823 17.888 176.298 18.4384 176.668 19.0576C177.062 19.6768 177.328 20.3418 177.467 21.0528L176.529 20.812V16.2712H180.836V34.4H176.495V30.0656L177.502 29.8936C177.34 30.5128 177.039 31.1205 176.599 31.7168C176.182 32.2901 175.65 32.8061 175.002 33.2648C174.376 33.7005 173.67 34.056 172.883 34.3312C172.119 34.6064 171.297 34.744 170.418 34.744ZM171.598 30.9944C172.594 30.9944 173.474 30.7536 174.238 30.272C175.002 29.7904 175.592 29.1253 176.009 28.2768C176.448 27.4053 176.668 26.4077 176.668 25.284C176.668 24.1832 176.448 23.2085 176.009 22.36C175.592 21.5114 175.002 20.8464 174.238 20.3648C173.474 19.8832 172.594 19.6424 171.598 19.6424C170.603 19.6424 169.723 19.8832 168.959 20.3648C168.218 20.8464 167.639 21.5114 167.223 22.36C166.806 23.2085 166.598 24.1832 166.598 25.284C166.598 26.4077 166.806 27.4053 167.223 28.2768C167.639 29.1253 168.218 29.7904 168.959 30.272C169.723 30.7536 170.603 30.9944 171.598 30.9944ZM185.788 34.4V16.2712H189.955L190.024 19.9864L189.226 20.3992C189.457 19.5736 189.909 18.8282 190.58 18.1632C191.251 17.4752 192.05 16.9248 192.976 16.512C193.902 16.0992 194.851 15.8928 195.824 15.8928C197.213 15.8928 198.37 16.168 199.296 16.7184C200.246 17.2688 200.952 18.0944 201.415 19.1952C201.901 20.296 202.144 21.672 202.144 23.3232V34.4H197.873V23.6328C197.873 22.7154 197.745 21.9586 197.491 21.3624C197.236 20.7432 196.842 20.296 196.31 20.0208C195.777 19.7226 195.129 19.585 194.365 19.608C193.74 19.608 193.161 19.7112 192.629 19.9176C192.12 20.101 191.668 20.3762 191.275 20.7432C190.904 21.0872 190.603 21.4885 190.372 21.9472C190.163 22.4058 190.059 22.9104 190.059 23.4608V34.4H187.941C187.524 34.4 187.131 34.4 186.76 34.4C186.413 34.4 186.089 34.4 185.788 34.4ZM209.557 42.312L213.447 33.4024L213.482 36.2232L204.453 16.2712H209.384L214.419 28.1048C214.581 28.4029 214.743 28.8042 214.905 29.3088C215.067 29.7904 215.206 30.272 215.322 30.7536L214.454 31.0288C214.616 30.593 214.79 30.1344 214.975 29.6528C215.16 29.1482 215.334 28.6322 215.496 28.1048L219.802 16.2712H224.768L217.128 34.4L214.002 42.312H209.557Z" fill="#FCFCFC"/>
</svg>
