<svg width="180" height="100" viewBox="0 0 180 100" fill="none" xmlns="http://www.w3.org/2000/svg">
<path d="M127.077 27.2506C126.98 27.2389 126.499 27.2194 126.003 27.2077C125.507 27.1921 125.097 27.1921 125.085 27.2038C125.073 27.2116 124.897 27.2311 124.694 27.2467C124.491 27.2624 124.163 27.2897 123.971 27.3131C123.78 27.3327 123.409 27.3873 123.151 27.4303C122.893 27.4732 122.393 27.5787 122.037 27.6646C121.682 27.7544 121.131 27.9106 120.807 28.02C120.486 28.1293 119.979 28.3207 119.686 28.4456C119.389 28.5706 118.975 28.762 118.767 28.8674C118.557 28.9728 118.236 29.1447 118.053 29.2501C117.869 29.3555 117.572 29.5352 117.388 29.6523C117.205 29.7656 116.896 29.9765 116.705 30.1171C116.513 30.2576 116.22 30.4763 116.06 30.6013C115.9 30.7302 115.619 30.9645 115.435 31.1285C115.251 31.2925 114.97 31.562 114.81 31.7221C114.646 31.8822 114.4 32.1399 114.263 32.2883C114.122 32.4406 113.841 32.7726 113.634 33.0303C113.431 33.2881 113.146 33.6669 113.005 33.8699C112.864 34.073 112.63 34.4323 112.485 34.6705C112.341 34.9087 112.079 35.3891 111.903 35.7444C111.727 36.0998 111.493 36.6192 111.384 36.8965C111.274 37.1737 111.169 37.4549 111.149 37.5174C111.134 37.5799 111.106 37.6345 111.091 37.6423C111.071 37.6502 110.923 37.5681 110.759 37.4588C110.591 37.3495 110.262 37.1698 110.024 37.0527C109.786 36.9394 109.434 36.791 109.243 36.7207C109.051 36.6543 108.758 36.5645 108.598 36.5255C108.438 36.4825 108.121 36.42 107.895 36.3849C107.668 36.3536 107.239 36.3185 106.938 36.3107C106.621 36.3029 106.215 36.3185 105.981 36.3497C105.754 36.3771 105.422 36.4356 105.238 36.4786C105.055 36.5216 104.73 36.6231 104.516 36.7012C104.301 36.7832 103.941 36.9433 103.715 37.0566C103.488 37.1737 103.136 37.3846 102.933 37.533C102.73 37.6775 102.371 37.9782 102.136 38.2047C101.906 38.4312 101.605 38.7553 101.472 38.9272C101.339 39.099 101.144 39.3723 101.038 39.5325C100.937 39.6926 100.777 39.9737 100.687 40.1573C100.593 40.3408 100.476 40.5947 100.421 40.7235C100.37 40.8524 100.288 41.0711 100.245 41.2117C100.199 41.3523 100.128 41.6061 100.085 41.7779C100.042 41.9498 99.9797 42.2661 99.9485 42.4809C99.9133 42.6957 99.886 43.0667 99.886 43.301C99.886 43.5353 99.9133 43.9414 99.9446 44.1992C99.9758 44.4569 100.015 44.7498 100.031 44.8474L100.062 45.0271C99.3937 45.0661 98.9913 45.113 98.7335 45.1559C98.4756 45.1989 98.0967 45.277 97.8935 45.3317C97.6903 45.3824 97.3114 45.4996 97.0535 45.5855C96.7957 45.6753 96.3659 45.851 96.0964 45.9799C95.8268 46.1088 95.44 46.3158 95.2369 46.4368C95.0337 46.5579 94.6626 46.8117 94.4165 46.9953C94.1703 47.1788 93.8343 47.4522 93.6742 47.6006C93.514 47.749 93.26 47.9989 93.1077 48.159C92.9592 48.3152 92.7131 48.5964 92.5646 48.7838C92.4162 48.9674 92.213 49.2407 92.1114 49.393C92.0099 49.5454 91.8419 49.8148 91.7325 49.9984C91.627 50.1819 91.459 50.4982 91.3613 50.7013C91.2637 50.9044 91.1035 51.291 91.0058 51.5604C90.9082 51.8299 90.7753 52.2595 90.7089 52.5172C90.6464 52.7749 90.5526 53.2397 90.5058 53.5521C90.4393 53.9895 90.4198 54.3097 90.4159 54.9579C90.412 55.6296 90.4276 55.8796 90.4862 56.2076C90.5565 56.5747 90.5761 56.6333 90.6933 56.7426L90.8222 56.8715C134.629 56.8715 134.793 56.8676 134.957 56.7934C135.078 56.7348 135.133 56.6879 135.149 56.6059C135.16 56.5473 135.285 56.0709 135.426 55.5437C135.567 55.0165 135.707 54.4464 135.739 54.2745C135.77 54.1027 135.793 53.7434 135.793 53.474C135.793 53.2045 135.778 52.8882 135.754 52.771C135.731 52.6539 135.676 52.443 135.633 52.3024C135.59 52.1618 135.496 51.947 135.426 51.8221C135.36 51.701 135.211 51.4979 135.106 51.373C134.996 51.248 134.809 51.0606 134.684 50.9512C134.563 50.8458 134.36 50.6935 134.234 50.6115C134.113 50.5295 133.914 50.4162 133.797 50.3615C133.68 50.3108 133.469 50.2249 133.328 50.1741C133.187 50.1233 132.934 50.053 132.762 50.0179C132.535 49.971 132.183 49.9476 131.472 49.9359C130.933 49.9281 129.624 49.9124 128.562 49.9007C127.499 49.889 125.874 49.8695 124.948 49.8617C124.022 49.85 122.538 49.8343 121.647 49.8226C120.756 49.8148 119.197 49.7953 118.189 49.7836C117.181 49.7719 115.693 49.7562 114.888 49.7445C114.09 49.7329 112.403 49.7174 111.129 49.7057L111.098 49.7055C109.821 49.6937 108.711 49.6742 108.637 49.6586C108.563 49.6469 108.438 49.6078 108.364 49.5727C108.289 49.5375 108.207 49.4829 108.18 49.4516C108.153 49.4204 108.129 49.3579 108.129 49.3149C108.129 49.272 108.192 49.1431 108.266 49.0299C108.34 48.9205 108.454 48.7995 108.52 48.7682C108.59 48.7331 108.793 48.7018 109.036 48.694C109.258 48.6823 110.661 48.6667 112.153 48.655C113.646 48.6394 115.345 48.6237 115.923 48.612C116.502 48.6003 117.892 48.5847 119.01 48.573C120.127 48.5612 121.842 48.5456 122.819 48.5339C123.796 48.5222 125.167 48.5066 125.866 48.4949C126.565 48.4831 128.288 48.4675 129.695 48.4558C131.101 48.4441 132.414 48.4246 132.605 48.4128C132.797 48.4011 133.117 48.366 133.309 48.3347C133.5 48.3035 133.758 48.2488 133.875 48.2176C133.992 48.1824 134.274 48.0926 134.5 48.0145C134.727 47.9364 135.129 47.7607 135.399 47.624C135.668 47.4873 136.071 47.253 136.297 47.1007C136.524 46.9484 136.793 46.7531 136.903 46.6672C137.008 46.5774 137.262 46.3548 137.465 46.1713C137.669 45.9877 137.965 45.6831 138.13 45.4879C138.294 45.2926 138.501 45.0388 138.587 44.9216C138.673 44.8045 138.829 44.5741 138.93 44.4139C139.036 44.2538 139.212 43.9258 139.329 43.6915C139.442 43.4572 139.606 43.0667 139.696 42.8323C139.786 42.598 139.899 42.2973 139.95 42.1685C140.001 42.0396 140.239 41.4265 140.478 40.8016C140.716 40.1768 140.919 39.6067 140.935 39.5325C140.946 39.4504 140.939 39.3841 140.911 39.3645C140.888 39.3489 140.876 39.3216 140.888 39.2981C140.899 39.2747 140.845 39.017 140.771 38.7202C140.692 38.4273 140.579 38.0251 140.513 37.8337C140.446 37.6423 140.294 37.2284 140.173 36.916C140.052 36.6036 139.802 36.0529 139.618 35.6858C139.434 35.3188 139.126 34.7759 138.938 34.4752C138.747 34.1745 138.45 33.7372 138.27 33.4989C138.094 33.2607 137.837 32.9366 137.704 32.7765C137.571 32.6164 137.325 32.3352 137.161 32.1556C136.997 31.9759 136.645 31.6245 136.375 31.3784C136.106 31.1285 135.727 30.8005 135.535 30.6482C135.344 30.492 134.977 30.2186 134.727 30.039C134.477 29.8593 134.043 29.5781 133.77 29.4141C133.496 29.2501 133.043 29.0002 132.762 28.8596C132.48 28.719 132.043 28.5198 131.785 28.4105C131.527 28.3011 131.078 28.1332 130.789 28.0317C130.5 27.9341 130.035 27.7935 129.753 27.7193C129.472 27.6451 129.019 27.5435 128.738 27.4889C128.456 27.4342 128.011 27.3639 127.741 27.3327C127.472 27.3014 127.175 27.2624 127.077 27.2506Z" fill="#9F9F9F"/>
<path fill-rule="evenodd" clip-rule="evenodd" d="M26.9657 61.6514C27.4579 61.6592 27.8174 61.6866 28.04 61.7295C28.2237 61.7686 28.5206 61.8428 28.7042 61.8975C28.8878 61.9521 29.1769 62.0576 29.3488 62.1318C29.5207 62.2021 29.7825 62.3348 29.9348 62.4247C30.0872 62.5145 30.349 62.698 30.5209 62.8308C30.6928 62.9597 30.974 63.2174 31.1459 63.3971C31.3178 63.5806 31.5718 63.893 31.7085 64.0961C31.8453 64.2992 32.0054 64.5647 32.064 64.6819C32.1226 64.799 32.2203 65.0216 32.2789 65.17C32.3375 65.3184 32.4313 65.5918 32.4782 65.7753C32.5289 65.9589 32.5719 66.1112 32.5719 66.1151C32.5719 66.1229 31.8648 66.1268 29.427 66.1268L29.3254 65.9237C29.2668 65.8105 29.1261 65.5918 29.005 65.4434C28.8839 65.295 28.712 65.1075 28.6182 65.0294C28.5245 64.9552 28.3448 64.8264 28.2158 64.7482C28.0869 64.6701 27.8486 64.5569 27.6884 64.5022C27.4853 64.4319 27.2821 64.3929 27.0243 64.3773C26.8094 64.3655 26.5359 64.3773 26.3797 64.4046C26.2312 64.4319 25.9929 64.4983 25.8522 64.553C25.7116 64.6077 25.4928 64.7248 25.3639 64.8146C25.235 64.9005 25.0513 65.0529 24.9537 65.1505C24.856 65.2481 24.6958 65.459 24.5942 65.6191C24.4927 65.7792 24.3559 66.0799 24.2856 66.283C24.1645 66.6305 24.1567 66.6891 24.1567 67.1812C24.1567 67.5717 24.1762 67.7748 24.227 67.9622C24.2661 68.1028 24.3442 68.3215 24.4028 68.4504C24.4614 68.5792 24.5669 68.7706 24.6411 68.8799C24.7154 68.9854 24.8365 69.1455 24.9146 69.2275C24.9888 69.3095 25.149 69.4501 25.2662 69.536C25.3834 69.6258 25.6061 69.7508 25.7546 69.8211C25.903 69.8875 26.1335 69.9695 26.2624 69.9968C26.3914 70.0242 26.6648 70.0437 26.868 70.0437C27.0712 70.0437 27.3173 70.0242 27.415 69.9968C27.5126 69.9695 27.6884 69.9148 27.8056 69.8679C27.9228 69.8211 28.1338 69.7117 28.2744 69.6219C28.4151 69.5282 28.6417 69.3329 28.7823 69.1845C28.923 69.0361 29.0949 68.8057 29.2902 68.4308H32.4156L32.3922 68.5558C32.3766 68.6261 32.3141 68.8175 32.2516 68.9776C32.1891 69.1377 32.0406 69.454 31.9195 69.6805C31.8023 69.907 31.5835 70.2467 31.4389 70.442C31.2944 70.6334 31.0365 70.9302 30.8686 71.0981C30.6967 71.2621 30.4193 71.5042 30.2474 71.6331C30.0755 71.762 29.802 71.9416 29.6418 72.0314C29.4816 72.1251 29.1886 72.2618 28.9972 72.3438C28.8058 72.4219 28.4776 72.5313 28.2744 72.586C28.0713 72.6406 27.7119 72.7109 27.4736 72.7461C27.2352 72.7773 26.9071 72.8046 26.7391 72.8046C26.575 72.8046 26.2312 72.7773 25.9812 72.7461C25.7272 72.7109 25.4147 72.6562 25.2858 72.625C25.1568 72.5938 24.9107 72.5196 24.7388 72.4649C24.5669 72.4102 24.2778 72.2931 24.0942 72.2032C23.9106 72.1134 23.6136 71.9416 23.43 71.8205C23.2464 71.6995 22.9847 71.4964 22.844 71.3714C22.7034 71.2465 22.4846 71.0317 22.3596 70.8911C22.2345 70.7505 22.0392 70.4967 21.9259 70.3249C21.8126 70.153 21.6563 69.8836 21.5782 69.7274C21.5001 69.5751 21.3946 69.329 21.3399 69.1806C21.2852 69.0361 21.2071 68.7862 21.1641 68.6261C21.125 68.466 21.0703 68.1926 21.0469 68.0208C21.0195 67.849 21 67.4819 21 67.2007C21 66.9195 21.0195 66.5681 21.0469 66.4197C21.0703 66.2713 21.125 66.0057 21.1719 65.8339C21.2149 65.6621 21.2969 65.4082 21.3477 65.2676C21.3985 65.1271 21.5313 64.8459 21.6368 64.6428C21.7423 64.4397 21.9494 64.1156 22.0939 63.9243C22.2385 63.7329 22.5158 63.4244 22.7112 63.2408C22.9065 63.0573 23.2112 62.8035 23.3949 62.6824C23.5746 62.5613 23.8832 62.3817 24.0746 62.2802C24.2661 62.1825 24.5239 62.0654 24.6411 62.0224C24.7583 61.9795 25.024 61.8975 25.2271 61.8428C25.4303 61.7881 25.7389 61.7217 25.9108 61.6905C26.114 61.6592 26.4773 61.6436 26.9657 61.6514V61.6514ZM62.3768 61.753L65.3694 61.7725L65.389 65.0919C65.4085 68.384 65.4085 68.4152 65.4945 68.6651C65.5413 68.8057 65.6273 69.0049 65.6898 69.1142C65.7484 69.2197 65.8929 69.4071 66.0141 69.5282C66.1391 69.6532 66.3266 69.7898 66.4633 69.8562C66.5923 69.9148 66.8384 69.989 67.0103 70.0202C67.2095 70.0554 67.4244 70.0671 67.5963 70.0515C67.7448 70.0359 67.9479 70.0085 68.0456 69.9851C68.1433 69.9617 68.3347 69.8875 68.4714 69.8211C68.6355 69.743 68.7918 69.6258 68.9168 69.4852C69.0262 69.3681 69.1551 69.1806 69.202 69.0752C69.2528 68.9658 69.3231 68.7745 69.3622 68.6456C69.4247 68.4308 69.4286 68.1262 69.452 61.753L72.4407 61.7725L72.4525 64.7209C72.4603 66.4197 72.4446 67.9193 72.4251 68.2551C72.4017 68.5753 72.3548 68.9815 72.3196 69.1533C72.2884 69.3251 72.2141 69.6063 72.1594 69.7781C72.1087 69.95 72.0032 70.2233 71.9289 70.3834C71.8508 70.5435 71.7141 70.7896 71.6203 70.9302C71.5265 71.0707 71.3468 71.2933 71.2218 71.4222C71.0968 71.555 70.8897 71.7424 70.7608 71.8401C70.6319 71.9377 70.4131 72.0783 70.2725 72.1564C70.1318 72.2306 69.9052 72.3399 69.7646 72.3946C69.6239 72.4493 69.3856 72.5274 69.2372 72.5664C69.0887 72.6055 68.8504 72.6602 68.7097 72.6836C68.5691 72.707 68.3191 72.7422 68.155 72.7656C67.987 72.7851 67.7213 72.8046 67.569 72.8046C67.4127 72.8046 67.0728 72.7773 66.815 72.7461C66.5571 72.7148 66.2133 72.6641 66.0531 72.6289C65.8929 72.5977 65.5921 72.5157 65.389 72.4493C65.1858 72.3829 64.9123 72.2774 64.7834 72.2189C64.6545 72.1564 64.4162 72.0236 64.256 71.9182C64.0958 71.8127 63.8302 71.594 63.6622 71.4339C63.4981 71.2738 63.2871 71.0317 63.1934 70.8911C63.0996 70.7505 62.959 70.5045 62.8808 70.3444C62.8066 70.1843 62.705 69.9382 62.662 69.7977C62.6152 69.6571 62.537 69.3681 62.4901 69.1533C62.4042 68.7667 62.4003 68.7237 62.3886 65.2559L62.3768 61.753ZM157.902 61.7803C158.019 61.792 158.203 61.8389 158.308 61.8857C158.418 61.9326 158.578 62.0537 158.683 62.1669C158.796 62.288 158.886 62.4403 158.933 62.577C158.976 62.7058 159.004 62.8933 159 63.0456C159 63.2408 158.972 63.3502 158.879 63.5415C158.804 63.6938 158.699 63.8344 158.597 63.9203C158.503 63.9945 158.335 64.0922 158.226 64.1351C158.101 64.1859 157.925 64.2171 157.785 64.2171C157.644 64.2171 157.468 64.1859 157.347 64.1351C157.234 64.0922 157.07 63.9985 156.984 63.9282C156.898 63.854 156.777 63.7017 156.714 63.5884C156.624 63.4244 156.593 63.3111 156.581 63.0846C156.57 62.8816 156.581 62.7293 156.624 62.5965C156.659 62.4871 156.761 62.3153 156.855 62.2099C156.949 62.1044 157.093 61.9756 157.179 61.9248C157.265 61.8779 157.413 61.8194 157.511 61.7959C157.609 61.7764 157.785 61.7686 157.902 61.7803ZM157.074 62.3817C156.992 62.4793 156.906 62.6355 156.882 62.7332C156.855 62.8347 156.847 62.9948 156.859 63.1237C156.874 63.2408 156.929 63.4088 156.98 63.4947C157.031 63.5806 157.14 63.6978 157.222 63.7563C157.308 63.8149 157.464 63.8813 157.57 63.9086C157.718 63.9438 157.816 63.9438 157.98 63.9086C158.097 63.8852 158.265 63.8149 158.351 63.7524C158.445 63.686 158.55 63.5572 158.617 63.4322C158.691 63.2838 158.722 63.1627 158.722 63.0261C158.722 62.9167 158.699 62.7488 158.668 62.6551C158.628 62.5418 158.543 62.4169 158.429 62.3114C158.332 62.2216 158.187 62.1279 158.109 62.1083C158.027 62.0849 157.863 62.0693 157.746 62.0693C157.624 62.0693 157.464 62.1005 157.374 62.1396C157.288 62.1786 157.152 62.288 157.074 62.3817Z" fill="#E6E6E6"/>
<path d="M141.568 39.5715C141.255 39.4426 140.989 39.3372 140.978 39.3372C140.966 39.3372 140.946 39.4192 140.935 39.5207C140.923 39.6261 140.595 40.5321 140.204 41.5436C139.817 42.555 139.391 43.5899 139.263 43.8476C139.134 44.1054 138.876 44.535 138.688 44.8005C138.481 45.0973 138.157 45.4878 137.86 45.7924C137.59 46.0736 137.196 46.4407 136.981 46.6125C136.766 46.7843 136.465 47.0069 136.317 47.1085C136.164 47.21 135.868 47.3857 135.653 47.5068C135.438 47.624 135.114 47.7841 134.93 47.8622C134.746 47.9403 134.438 48.0535 134.246 48.1199C134.055 48.1824 133.711 48.2683 133.484 48.3113C133.258 48.3542 132.926 48.4011 132.742 48.4128C132.558 48.4245 131.558 48.4441 130.515 48.4558C129.472 48.4675 127.812 48.4831 126.823 48.4948C125.835 48.5065 124.428 48.5222 123.698 48.5339C122.967 48.5456 121.287 48.5612 119.967 48.5729C118.646 48.5846 117.248 48.6042 116.861 48.612C116.474 48.6198 114.802 48.6432 113.15 48.6549C111.493 48.6706 110.036 48.6862 109.907 48.694C109.778 48.6979 109.43 48.7018 109.133 48.7057L108.598 48.7096C108.379 48.9049 108.274 49.0415 108.219 49.1392C108.137 49.2837 108.129 49.3305 108.164 49.4008C108.188 49.4516 108.289 49.5258 108.391 49.5727C108.524 49.6273 108.684 49.6586 108.93 49.6664C109.122 49.6742 110.548 49.6898 112.095 49.7015C113.642 49.7171 115.357 49.7328 115.904 49.7445C116.451 49.7562 117.849 49.7718 119.01 49.7835C120.17 49.7952 121.866 49.8109 122.78 49.8226C123.694 49.8343 125.046 49.8499 125.788 49.8616C126.53 49.8734 128.288 49.889 129.695 49.9046C131.59 49.9202 132.34 49.9397 132.586 49.9788C132.769 50.01 133.066 50.0803 133.25 50.135C133.434 50.1936 133.723 50.3146 133.895 50.4006C134.067 50.4904 134.34 50.6622 134.5 50.7833C134.66 50.9043 134.863 51.0801 134.949 51.1738C135.039 51.2675 135.18 51.4432 135.27 51.5604C135.356 51.6775 135.469 51.8611 135.516 51.9704C135.563 52.0759 135.633 52.2711 135.672 52.4C135.711 52.5289 135.762 52.7554 135.782 52.9077C135.801 53.06 135.821 53.3138 135.821 53.4739C135.821 53.634 135.797 53.923 135.77 54.1183C135.743 54.3135 135.692 54.583 135.657 54.7236C135.618 54.8642 135.5 55.3016 135.395 55.6999C135.285 56.0982 135.192 56.4536 135.18 56.4887C135.164 56.5551 135.227 56.559 136.051 56.559C136.543 56.559 136.922 56.5434 136.895 56.5278C136.872 56.5122 136.833 56.4575 136.813 56.4028C136.79 56.3482 136.786 56.2779 136.805 56.2466C136.821 56.2154 136.891 55.9342 136.958 55.6218C137.028 55.3094 137.137 54.9228 137.208 54.7626C137.274 54.6025 137.411 54.3253 137.508 54.1456C137.606 53.9699 137.79 53.6731 137.919 53.4896C138.048 53.3021 138.255 53.0287 138.38 52.8725C138.505 52.7202 138.802 52.4039 139.044 52.1735C139.286 51.9392 139.641 51.6307 139.833 51.4823C140.024 51.3378 140.36 51.1074 140.575 50.9707C140.79 50.8379 141.157 50.6349 141.396 50.5216C141.634 50.4084 141.958 50.2678 142.118 50.2092C142.279 50.1545 142.525 50.0725 142.665 50.0335C142.806 49.9983 143.068 49.9397 143.251 49.9046C143.435 49.8734 143.689 49.8382 143.818 49.8265C143.947 49.8148 144.224 49.7952 144.431 49.7835C144.642 49.7718 144.982 49.7562 145.185 49.7445C145.388 49.7328 145.724 49.7171 145.928 49.7054C146.131 49.6937 146.467 49.6781 146.67 49.6664C146.873 49.6547 147.213 49.639 147.42 49.6273C147.631 49.6156 147.951 49.6 148.135 49.5883C148.318 49.5805 148.658 49.5609 148.897 49.5453C149.174 49.5297 149.373 49.4985 149.459 49.4594C149.533 49.4204 149.651 49.3071 149.725 49.1978C149.795 49.0884 149.854 48.9595 149.854 48.9049C149.858 48.8502 149.827 48.7799 149.787 48.7487C149.748 48.7135 149.627 48.6588 149.522 48.6237C149.412 48.5846 149.127 48.5495 148.877 48.5339C148.631 48.5222 148.268 48.5026 148.076 48.4948C147.885 48.4831 147.592 48.4675 147.432 48.4558C147.271 48.448 146.935 48.4284 146.689 48.4167C146.443 48.405 146.127 48.3855 145.986 48.3777C145.845 48.3659 145.502 48.3503 145.224 48.3386C144.943 48.3269 144.627 48.3074 144.521 48.2957C144.412 48.2878 144.236 48.2683 144.131 48.2566L144.13 48.2566C144.021 48.2449 143.83 48.2097 143.701 48.1785C143.572 48.1473 143.326 48.0653 143.154 47.9989C142.982 47.9325 142.743 47.827 142.626 47.7606C142.509 47.6943 142.271 47.5341 142.099 47.4014C141.927 47.2686 141.696 47.0616 141.591 46.9367C141.482 46.8156 141.333 46.6164 141.259 46.4915C141.181 46.3704 141.071 46.1205 141.017 45.9369C140.958 45.7534 140.892 45.4917 140.868 45.3511C140.849 45.2106 140.829 44.9294 140.829 44.7263C140.829 44.5232 140.853 44.2147 140.884 44.0429C140.915 43.8711 140.978 43.5899 141.021 43.4181C141.064 43.2462 141.302 42.4105 141.552 41.5631C141.884 40.4306 142.029 39.9971 142.091 39.9347C142.138 39.8839 142.169 39.837 142.157 39.8253C142.146 39.8175 141.88 39.7042 141.568 39.5715Z" fill="#E4E4E4"/>
<path d="M144.677 39.8253C144.435 39.7902 143.83 39.755 143.29 39.7472C142.634 39.7316 142.31 39.7394 142.255 39.7707C142.212 39.7941 142.138 39.8605 142.091 39.9152C142.036 39.9855 141.853 40.54 141.552 41.5631C141.306 42.4106 141.064 43.2463 141.021 43.4181C140.978 43.5899 140.915 43.8711 140.884 44.0429C140.853 44.2148 140.829 44.5233 140.829 44.7263C140.829 44.9294 140.849 45.2106 140.868 45.3512C140.892 45.4918 140.958 45.7534 141.017 45.937C141.071 46.1205 141.181 46.3704 141.259 46.4915C141.333 46.6165 141.482 46.8156 141.591 46.9367C141.696 47.0617 141.927 47.2686 142.099 47.4014C142.271 47.5342 142.509 47.6943 142.626 47.7607C142.743 47.8271 142.982 47.9325 143.154 47.9989C143.326 48.0653 143.572 48.1473 143.701 48.1785C143.83 48.2098 144.021 48.2449 144.13 48.2566C144.236 48.2684 144.412 48.2879 144.521 48.2957C144.627 48.3074 144.943 48.3269 145.224 48.3386C145.506 48.3504 145.845 48.366 145.986 48.3777C146.127 48.3855 146.443 48.405 146.689 48.4167C146.935 48.4285 147.271 48.448 147.432 48.4558C147.592 48.4675 147.885 48.4831 148.076 48.4949C148.268 48.5027 148.631 48.5222 148.877 48.5339C149.127 48.5495 149.412 48.5847 149.522 48.6237C149.627 48.6589 149.748 48.7135 149.787 48.7487C149.826 48.7799 149.858 48.8502 149.854 48.9049C149.854 48.9596 149.795 49.0884 149.725 49.1978C149.651 49.3071 149.533 49.4204 149.459 49.4594C149.373 49.4985 149.174 49.5297 148.897 49.5453C148.658 49.561 148.318 49.5805 148.135 49.5883C147.951 49.6 147.631 49.6156 147.42 49.6274C147.213 49.6391 146.873 49.6547 146.67 49.6664C146.467 49.6781 146.131 49.6937 145.927 49.7055C145.724 49.7172 145.388 49.7328 145.185 49.7445C144.982 49.7562 144.642 49.7718 144.431 49.7836C144.224 49.7953 143.947 49.8148 143.818 49.8265C143.689 49.8382 143.435 49.8734 143.251 49.9046C143.068 49.9398 142.806 49.9984 142.665 50.0335C142.525 50.0725 142.279 50.1546 142.118 50.2092C141.958 50.2678 141.634 50.4084 141.396 50.5216C141.157 50.6349 140.79 50.838 140.575 50.9707C140.36 51.1074 140.024 51.3378 139.833 51.4823C139.641 51.6307 139.286 51.9392 139.044 52.1735C138.802 52.4039 138.505 52.7203 138.38 52.8726C138.255 53.0288 138.047 53.3021 137.919 53.4896C137.79 53.6731 137.606 53.9699 137.508 54.1457C137.411 54.3253 137.274 54.6026 137.208 54.7627C137.137 54.9228 137.028 55.3094 136.957 55.6218C136.891 55.9342 136.821 56.2154 136.805 56.2466C136.786 56.2779 136.79 56.3482 136.813 56.4029C136.832 56.4575 136.879 56.52 136.915 56.5473C136.965 56.5864 138.997 56.5981 146.103 56.5981C155.218 56.602 155.226 56.602 155.331 56.52C155.405 56.4692 155.448 56.3911 155.464 56.2935C155.476 56.2154 155.523 56.0084 155.566 55.8366C155.609 55.6648 155.694 55.2704 155.757 54.9579C155.819 54.6455 155.902 54.1886 155.933 53.9426C155.968 53.6966 155.999 53.1694 156.007 52.771C156.015 52.3727 156.003 51.8728 155.984 51.6581C155.964 51.4433 155.921 51.0723 155.89 50.838C155.855 50.6037 155.773 50.1624 155.71 49.8617C155.644 49.561 155.495 49.0338 155.382 48.6901C155.269 48.3465 155.062 47.7997 154.917 47.4795C154.776 47.1593 154.55 46.6985 154.417 46.4642C154.288 46.2298 154.034 45.8159 153.854 45.5464C153.679 45.277 153.378 44.863 153.19 44.6287C153.003 44.3944 152.538 43.8906 152.163 43.5157C151.784 43.1408 151.292 42.6878 151.065 42.516C150.838 42.3403 150.479 42.0786 150.264 41.9341C150.049 41.7896 149.866 41.6608 149.854 41.6452C149.842 41.6334 149.709 41.5553 149.561 41.4733C149.412 41.3913 149.006 41.1843 148.662 41.0164C148.318 40.8485 147.791 40.622 147.49 40.5087C147.189 40.3994 146.682 40.2393 146.357 40.1573C146.037 40.0714 145.623 39.9776 145.439 39.9425C145.256 39.9113 144.916 39.8566 144.677 39.8253Z" fill="#C0C0C0"/>
<path d="M130.046 48.4636C130.121 48.4558 130.042 48.448 129.871 48.448C129.699 48.448 129.636 48.4558 129.734 48.4636C129.832 48.4714 129.972 48.4714 130.046 48.4636Z" fill="#C0C0C0"/>
<path d="M126.628 48.5027C126.714 48.4949 126.624 48.4909 126.433 48.4909C126.241 48.4909 126.167 48.4949 126.276 48.5027C126.382 48.5105 126.542 48.5105 126.628 48.5027Z" fill="#C0C0C0"/>
<path d="M123.268 48.5417C123.354 48.5339 123.264 48.53 123.073 48.53C122.881 48.53 122.807 48.5339 122.916 48.5417C123.022 48.5495 123.182 48.5495 123.268 48.5417Z" fill="#C0C0C0"/>
<path d="M119.772 48.5808C119.846 48.573 119.768 48.5651 119.596 48.5651C119.424 48.5651 119.361 48.573 119.459 48.5808C119.557 48.5886 119.697 48.5886 119.772 48.5808Z" fill="#C0C0C0"/>
<path d="M116.47 48.6198C116.556 48.612 116.466 48.6081 116.275 48.6081C116.084 48.6081 116.009 48.612 116.119 48.6198C116.224 48.6276 116.384 48.6276 116.47 48.6198Z" fill="#C0C0C0"/>
<path d="M112.974 48.6589C113.048 48.6511 112.97 48.6433 112.798 48.6433C112.626 48.6433 112.563 48.6511 112.661 48.6589C112.759 48.6667 112.899 48.6667 112.974 48.6589Z" fill="#C0C0C0"/>
<path d="M109.555 48.6979C109.641 48.6901 109.587 48.6823 109.438 48.6823C109.29 48.6823 109.215 48.6901 109.282 48.6979C109.348 48.7057 109.469 48.7057 109.555 48.6979Z" fill="#C0C0C0"/>
<path d="M112.036 49.7133C112.11 49.7055 112.032 49.6977 111.86 49.6977C111.688 49.6977 111.626 49.7055 111.724 49.7133C111.821 49.7211 111.962 49.7211 112.036 49.7133Z" fill="#C0C0C0"/>
<path d="M115.455 49.7523C115.54 49.7445 115.451 49.7406 115.259 49.7406C115.068 49.7406 114.994 49.7445 115.103 49.7523C115.208 49.7601 115.369 49.7601 115.455 49.7523Z" fill="#C0C0C0"/>
<path d="M118.873 49.7914C118.947 49.7836 118.869 49.7758 118.697 49.7758C118.525 49.7758 118.463 49.7836 118.56 49.7914C118.658 49.7992 118.799 49.7992 118.873 49.7914Z" fill="#C0C0C0"/>
<path d="M122.233 49.8304C122.307 49.8226 122.229 49.8148 122.057 49.8148C121.885 49.8148 121.823 49.8226 121.92 49.8304C122.018 49.8382 122.159 49.8382 122.233 49.8304Z" fill="#C0C0C0"/>
<path d="M129.07 49.9085C129.144 49.9007 129.066 49.8929 128.894 49.8929C128.722 49.8929 128.659 49.9007 128.757 49.9085C128.855 49.9163 128.995 49.9163 129.07 49.9085Z" fill="#C0C0C0"/>
<path fill-rule="evenodd" clip-rule="evenodd" d="M53.2389 61.507C53.485 61.5187 53.8913 61.5616 54.1374 61.6007C54.3836 61.6436 54.7703 61.7413 54.9969 61.8155C55.2235 61.8897 55.5908 62.0498 55.8174 62.1669C56.044 62.288 56.3604 62.4833 56.5206 62.6004C56.6808 62.7176 56.9542 62.9597 57.1261 63.1354C57.298 63.3112 57.5285 63.5689 57.634 63.7134C57.7434 63.8579 57.9192 64.1469 58.0325 64.3577C58.1419 64.5686 58.2865 64.881 58.349 65.0529C58.4115 65.2247 58.5013 65.5215 58.5443 65.7167C58.5912 65.9081 58.6459 66.2791 58.6732 66.5368C58.6967 66.7946 58.7045 67.1617 58.6889 67.3569C58.6771 67.5483 58.6381 67.8763 58.6029 68.0794C58.5716 68.2825 58.4818 68.6339 58.4076 68.8604C58.3372 69.0869 58.1771 69.454 58.0599 69.6805C57.9387 69.907 57.7434 70.2233 57.6223 70.3834C57.4973 70.5436 57.2394 70.8325 57.0441 71.0278C56.8488 71.2192 56.5245 71.4886 56.3213 71.6253C56.1182 71.762 55.8056 71.9455 55.622 72.0314C55.4384 72.1213 55.1415 72.2423 54.9579 72.3048C54.7742 72.3673 54.5125 72.4415 54.3718 72.4766C54.2312 72.5079 53.946 72.5586 53.735 72.5899C53.528 72.6211 53.1217 72.6485 52.8404 72.6485C52.5552 72.6485 52.1645 72.6211 51.9692 72.5938C51.7738 72.5625 51.5043 72.5118 51.3636 72.4766C51.223 72.4454 50.969 72.3673 50.7971 72.3009C50.6252 72.2384 50.3791 72.1369 50.2502 72.0783C50.1213 72.0197 49.9025 71.8987 49.7618 71.8166C49.6212 71.7307 49.4024 71.5784 49.2735 71.4808C49.1446 71.3832 48.9062 71.1684 48.7422 71.0083C48.582 70.8482 48.3866 70.6373 48.3085 70.5397C48.2343 70.442 48.0858 70.2311 47.9842 70.071C47.8788 69.9109 47.7303 69.6376 47.6483 69.4657C47.5701 69.2939 47.4646 69.0401 47.4178 68.8995C47.3709 68.7589 47.2966 68.4777 47.2537 68.2746C47.2107 68.0716 47.1638 67.7084 47.1443 67.4741C47.1287 67.2359 47.1287 66.8571 47.1482 66.6228C47.1677 66.3923 47.2107 66.0682 47.2459 65.9003C47.2771 65.7363 47.3592 65.4395 47.4256 65.2481C47.492 65.0529 47.617 64.7561 47.703 64.5842C47.7889 64.4124 47.9022 64.2015 47.9608 64.1156C48.0155 64.0297 48.16 63.8266 48.2812 63.6665C48.4023 63.5064 48.625 63.2565 48.7812 63.1081C48.9336 62.9636 49.1875 62.7527 49.3438 62.6356C49.4962 62.5223 49.7931 62.3388 49.9962 62.2294C50.1994 62.1201 50.5354 61.9678 50.7385 61.8897C50.9417 61.8155 51.2503 61.7178 51.4222 61.6788C51.5941 61.6358 51.8832 61.5851 52.0668 61.5616C52.2505 61.5382 52.4888 61.5109 52.5943 61.5031C52.7036 61.4952 52.9927 61.4991 53.2389 61.507V61.507ZM52.0473 64.2601C51.9184 64.307 51.7152 64.4007 51.598 64.471C51.4808 64.5374 51.2777 64.6975 51.1487 64.8225C51.0198 64.9513 50.8596 65.131 50.7932 65.2286C50.7268 65.3262 50.6174 65.5176 50.551 65.6582C50.4846 65.7988 50.4025 66.0253 50.3635 66.1658C50.3127 66.3494 50.2932 66.5603 50.2932 66.9274C50.2892 67.2866 50.3088 67.5092 50.3596 67.6889C50.3947 67.8295 50.508 68.1106 50.6096 68.3137C50.7581 68.6144 50.8518 68.7433 51.1058 69.001C51.3206 69.2158 51.5082 69.3564 51.6957 69.454C51.8481 69.5321 52.0512 69.6219 52.1567 69.6571C52.2583 69.6922 52.4692 69.7391 52.6255 69.7625C52.7779 69.782 53.0904 69.8016 53.317 69.8055C53.5944 69.8055 53.8015 69.786 53.9616 69.7391C54.0906 69.7039 54.2781 69.6297 54.3836 69.579C54.4851 69.5282 54.6961 69.3642 54.8524 69.2158C55.0633 69.0127 55.1766 68.8643 55.3173 68.6027C55.4189 68.4113 55.54 68.1067 55.5869 67.9232C55.6611 67.6537 55.6767 67.4936 55.6767 67.064C55.6728 66.654 55.6533 66.4665 55.5908 66.2244C55.5439 66.0526 55.4228 65.7441 55.3212 65.541C55.1727 65.2442 55.0712 65.1075 54.8211 64.8576C54.6375 64.6741 54.4148 64.4944 54.2742 64.4202C54.1453 64.3538 53.9265 64.2601 53.7858 64.2133C53.5983 64.1508 53.4108 64.1234 53.0826 64.1156C52.8365 64.1078 52.5552 64.1156 52.4575 64.1351C52.3598 64.1547 52.1762 64.2133 52.0473 64.2601ZM120.201 61.6358H121.725C123.143 61.6358 123.249 61.6397 123.264 61.7022C123.272 61.7413 123.385 62.0185 123.514 62.3192C123.643 62.6199 124.073 63.6314 124.468 64.5647C124.866 65.4981 125.593 67.2046 126.081 68.3527C126.569 69.5009 127.163 70.895 127.394 71.4457C127.628 72.0002 127.82 72.4688 127.82 72.4922C127.82 72.5196 127.257 72.5274 124.565 72.5118L124.315 71.926C124.178 71.6019 123.995 71.1762 123.756 70.6178H119.537L118.732 72.5118L117.162 72.5196C116.298 72.5274 115.591 72.5235 115.591 72.5118C115.591 72.5001 115.669 72.3126 115.763 72.09C115.857 71.8713 116.033 71.4535 116.158 71.1645C116.279 70.8755 116.857 69.5204 117.435 68.1575C118.017 66.7946 118.584 65.459 118.697 65.1895C118.81 64.9201 119.178 64.0609 119.51 63.276C119.846 62.4911 120.135 61.8038 120.158 61.7413L120.201 61.6358ZM120.877 67.3765C120.697 67.8177 120.541 68.2004 120.533 68.2278C120.518 68.2668 120.772 68.2746 121.705 68.2746C122.823 68.2746 122.897 68.2707 122.885 68.2083C122.877 68.1692 122.62 67.5248 122.311 66.7711C122.006 66.0214 121.744 65.3926 121.733 65.377C121.717 65.3614 121.596 65.6269 121.459 65.9628C121.323 66.3025 121.061 66.9391 120.877 67.3765V67.3765ZM35.8146 61.753H38.8228V69.9148L43.9993 69.9343V72.5118L35.8146 72.5313V61.753ZM77.0703 61.753L79.1722 61.7569C80.3286 61.7569 81.5162 61.7725 81.8171 61.7959C82.1179 61.8194 82.575 61.8779 82.8328 61.9287C83.0907 61.9795 83.4696 62.0771 83.6728 62.1435C83.8798 62.2099 84.2041 62.3427 84.3955 62.4325C84.5909 62.5262 84.9073 62.7019 85.0988 62.8308C85.3097 62.9636 85.6106 63.2174 85.845 63.4517C86.0598 63.6665 86.3177 63.9672 86.4154 64.1156C86.513 64.2679 86.6654 64.5296 86.7513 64.7014C86.8373 64.8771 86.9545 65.1466 87.0092 65.3067C87.0639 65.4707 87.1381 65.7519 87.1772 65.9315C87.2358 66.1932 87.2475 66.4392 87.2475 67.064C87.2475 67.6967 87.2358 67.9388 87.1772 68.1965C87.1381 68.3801 87.06 68.6691 87.0092 68.8409C86.9545 69.0166 86.8529 69.2783 86.7826 69.4267C86.7162 69.579 86.556 69.8602 86.4271 70.0515C86.2903 70.2663 86.0364 70.567 85.7864 70.8169C85.5441 71.059 85.2316 71.3207 85.0206 71.4574C84.8292 71.5862 84.4932 71.7737 84.2783 71.8752C84.0635 71.9768 83.747 72.1056 83.5751 72.1603C83.4032 72.215 83.0516 72.3048 82.7938 72.3556C82.5359 72.4102 82.0905 72.4727 81.7975 72.4922C81.5084 72.5157 80.3286 72.5313 77.0703 72.5313V61.753ZM79.9223 69.8172C81.4303 69.7742 81.8366 69.743 82.0124 69.7039C82.1648 69.6688 82.3835 69.6063 82.5008 69.5634C82.6219 69.5204 82.8328 69.415 82.9696 69.333C83.1102 69.2509 83.3329 69.0713 83.4618 68.9346C83.6064 68.7823 83.7548 68.5714 83.8408 68.3918C83.9228 68.2317 84.0127 67.9935 84.0478 67.8646C84.0791 67.7357 84.1182 67.4663 84.1299 67.2593C84.1455 67.0445 84.1338 66.7672 84.1064 66.5954C84.083 66.4353 84.0205 66.1893 83.9736 66.0487C83.9267 65.912 83.7978 65.666 83.6923 65.5059C83.5868 65.3458 83.4032 65.1349 83.2821 65.0372C83.1649 64.9357 82.9383 64.7912 82.7742 64.7131C82.614 64.6311 82.3406 64.5296 82.1687 64.4827C81.903 64.4124 81.7194 64.3968 80.8951 64.3812L79.934 64.3616L79.9223 69.8172ZM91.4864 61.753H100.081V64.3695H94.4946V66.1268H99.5344V68.5871H94.4946V72.5313H91.4864V61.753ZM104.301 61.753L107.289 61.7725L107.309 69.9148H112.466V72.5313H104.301V61.753ZM131.644 61.7569H134.234C135.696 61.7569 137.043 61.7725 137.329 61.7959C137.61 61.8194 137.989 61.8701 138.169 61.9092C138.352 61.9521 138.653 62.0381 138.833 62.1045C139.016 62.1708 139.306 62.3114 139.477 62.4169C139.649 62.5223 139.895 62.7019 140.024 62.8152C140.153 62.9284 140.345 63.1159 140.446 63.237C140.548 63.358 140.696 63.5767 140.774 63.729C140.853 63.8774 140.958 64.1234 141.009 64.2757C141.06 64.4241 141.122 64.6897 141.146 64.8615C141.173 65.0451 141.181 65.3692 141.165 65.6621C141.153 65.9511 141.11 66.2752 141.064 66.4626C141.021 66.6345 140.907 66.9313 140.814 67.1265C140.681 67.396 140.567 67.5561 140.313 67.8216C140.134 68.013 139.88 68.2356 139.751 68.3137C139.622 68.3957 139.407 68.5168 139.274 68.5832C139.138 68.6534 139.028 68.7159 139.028 68.7276C139.028 68.7355 139.274 69.1025 139.571 69.536C139.868 69.9734 140.353 70.688 140.649 71.1293C140.95 71.5667 141.267 72.0392 141.36 72.172C141.454 72.3087 141.54 72.4415 141.548 72.4766C141.568 72.5274 141.364 72.5352 138.188 72.5352L136 69.2548H134.653V72.5352H131.644V61.7569ZM134.653 67.0679C136.454 67.0679 136.532 67.0601 136.543 66.9976C136.551 66.9469 136.61 66.9234 136.805 66.9039C136.942 66.8922 137.145 66.8493 137.251 66.8141C137.36 66.7751 137.544 66.6813 137.657 66.6032C137.774 66.5251 137.919 66.3923 137.973 66.3064C138.032 66.2205 138.102 66.0799 138.13 65.994C138.161 65.9003 138.173 65.7402 138.161 65.6035C138.149 65.4746 138.106 65.2989 138.063 65.213C138.02 65.1271 137.899 64.9787 137.794 64.8888C137.688 64.7951 137.516 64.6858 137.407 64.6467C137.301 64.6077 137.075 64.5569 136.911 64.5335C136.743 64.51 136.168 64.4905 135.629 64.4905H134.653V67.0679ZM145.396 61.7569H154.108V64.2172H148.404V65.8573H153.561V68.3176H148.404V69.9187L154.245 69.9383V72.5157L145.396 72.5352V61.7569ZM157.234 62.4598H157.644C157.871 62.4598 158.093 62.4754 158.144 62.4989C158.191 62.5184 158.253 62.5809 158.281 62.6356C158.308 62.6863 158.328 62.784 158.328 62.8503C158.328 62.9284 158.285 63.0144 158.066 63.2604L158.328 63.6704H158.183C158.05 63.6665 158.023 63.6509 157.91 63.4752C157.796 63.2994 157.765 63.2799 157.507 63.2799V63.6704H157.234V62.4598ZM157.507 63.1237C157.851 63.1237 157.898 63.1081 157.898 63.0651C157.898 63.03 157.933 62.9948 157.976 62.987C158.019 62.9753 158.054 62.9363 158.058 62.8972C158.058 62.8621 158.035 62.8074 158.007 62.78C157.98 62.7527 157.863 62.7293 157.734 62.7332H157.507V63.1237Z" fill="#E6E6E6"/>
</svg>
