<svg width="180" height="100" viewBox="0 0 180 100" fill="none" xmlns="http://www.w3.org/2000/svg">
<mask id="mask0_366_668" style="mask-type:luminance" maskUnits="userSpaceOnUse" x="24" y="29" width="132" height="42">
<path d="M156 29H24V71H156V29Z" fill="white"/>
</mask>
<g mask="url(#mask0_366_668)">
<path d="M80.6546 29.0254L58.5532 45.3828C57.5144 41.3595 55.1138 37.7833 51.7297 35.2178C48.3455 32.6523 44.1704 31.2434 39.8623 31.2132H24V68.8123H39.8623C44.1934 68.8685 48.4132 67.4918 51.8155 64.9125C55.2179 62.3332 57.5965 58.7077 58.5532 54.6427L80.6546 71L102.756 54.6427V68.8123H127.686V61.1805H111.242V31.1878H102.174V45.3573L81.2098 61.7147L76.6891 57.8988L86.8937 50.2671L97.6535 42.1012L91.4144 37.1914L70.45 52.989L65.9291 49.1732L86.8937 33.9097L80.6546 29V29.0254ZM32.4863 38.8195H39.2807C40.6867 38.8221 42.0755 39.1172 43.352 39.6844C44.6486 40.2583 45.8162 41.0706 46.7888 42.0757C47.8124 43.1336 48.6197 44.3678 49.1681 45.7134C50.2955 48.5735 50.2955 51.7317 49.1681 54.5918C48.6553 55.9334 47.8939 57.1746 46.921 58.2549C45.9754 59.3169 44.815 60.1825 43.5106 60.799C42.167 61.4231 40.6934 61.745 39.2014 61.7402H32.4863V38.8449V38.8195ZM155.974 61.1805V68.8123H131.07V31.1878H140.138V61.1805H156H155.974Z" fill="#E6E6E6"/>
</g>
</svg>
