<svg width="180" height="100" viewBox="0 0 180 100" fill="none" xmlns="http://www.w3.org/2000/svg">
<mask id="mask0_366_674" style="mask-type:luminance" maskUnits="userSpaceOnUse" x="21" y="37" width="139" height="26">
<path d="M159.254 37H21.5173V63H159.254V37Z" fill="white"/>
</mask>
<g mask="url(#mask0_366_674)">
<mask id="mask1_366_674" style="mask-type:luminance" maskUnits="userSpaceOnUse" x="21" y="38" width="138" height="25">
<path d="M158.969 38.0301H21.5173V62.5426H158.969V38.0301Z" fill="white"/>
</mask>
<g mask="url(#mask1_366_674)">
<path d="M24.3669 57.4049C23.8605 57.406 23.3628 57.2754 22.9248 57.0263C22.4868 56.7773 22.1241 56.4188 21.8738 55.9874C21.6273 55.5592 21.5044 55.0732 21.5182 54.5818C21.532 54.0903 21.682 53.6116 21.9521 53.1974L27.0862 45.2979C27.349 44.8733 27.7221 44.5247 28.1673 44.2877C28.6126 44.0506 29.1141 43.9336 29.6206 43.9486C30.1268 43.9605 30.6206 44.104 31.0516 44.3642C31.4825 44.6245 31.8352 44.9924 32.0734 45.43C32.552 46.3168 32.4922 47.3836 31.919 48.216L26.7882 56.1153C26.528 56.5126 26.1696 56.8391 25.7464 57.0646C25.3231 57.2899 24.8486 57.407 24.3669 57.4049Z" fill="#E6E6E6"/>
<path d="M33.1728 57.4046C32.1372 57.4046 31.1844 56.8621 30.684 55.9903C30.4381 55.5633 30.3154 55.0785 30.3292 54.5884C30.343 54.0981 30.4928 53.6208 30.7623 53.2077L35.8865 45.3263C36.1455 44.8958 36.5172 44.541 36.9633 44.2987C37.4092 44.0564 37.9133 43.9354 38.4232 43.9483C39.4674 43.9707 40.4136 44.543 40.8923 45.4382C41.3677 46.3335 41.2981 47.4067 40.7074 48.2369L35.5842 56.1182C35.3249 56.5137 34.9679 56.839 34.5465 57.0638C34.125 57.2887 33.6526 57.4058 33.1728 57.4046Z" fill="#E6E6E6"/>
<path d="M41.7823 57.4709C43.2422 57.4709 44.4256 56.3357 44.4256 54.9354C44.4256 53.5351 43.2422 52.4 41.7823 52.4C40.3225 52.4 39.1391 53.5351 39.1391 54.9354C39.1391 56.3357 40.3225 57.4709 41.7823 57.4709Z" fill="#E6E6E6"/>
<path d="M156.609 52.5473C157.407 52.5473 157.885 53.1035 157.885 54.0148V57.1375H158.969V53.9433C158.969 52.3937 158.224 51.4952 156.824 51.4952C156.275 51.4952 155.405 51.6423 154.886 52.6303C154.765 52.3389 154.567 52.085 154.31 51.8954C154.054 51.7058 153.75 51.5879 153.432 51.5539C153.231 51.5179 153.026 51.506 152.823 51.5188C152.377 51.5539 151.582 51.8257 151.285 52.4416V51.6136H150.2V57.1375H151.285V54.1565C151.285 52.9969 152.06 52.5473 152.836 52.5473C153.562 52.5473 154.04 53.0918 154.04 54.003V57.1375H155.119V54.1565C155.119 53.2335 155.684 52.5365 156.609 52.5473ZM146.216 56.2145C146.712 56.2251 147.19 56.0311 147.537 55.6795C147.885 55.3278 148.07 54.8492 148.051 54.358C148.051 53.2453 147.216 52.5473 146.216 52.5473C145.214 52.5473 144.379 53.2453 144.379 54.358C144.36 54.8481 144.545 55.3257 144.891 55.6763C145.237 56.028 145.713 56.223 146.207 56.2145H146.216ZM146.216 57.2504C144.63 57.2504 143.306 56.1026 143.306 54.3515C143.306 52.6005 144.63 51.4889 146.216 51.4889C147.801 51.4889 149.136 52.6005 149.136 54.3515C149.136 56.1026 147.794 57.2557 146.208 57.2557L146.216 57.2504ZM137.72 54.3515L137.71 54.358C137.71 52.6069 139.068 51.4952 140.665 51.4889C141.066 51.4813 141.464 51.5563 141.834 51.7091C142.204 51.8617 142.537 52.0889 142.811 52.3757L141.989 53.0619C141.814 52.8939 141.607 52.7614 141.38 52.6722C141.153 52.5829 140.91 52.5386 140.665 52.5419C139.664 52.5419 138.794 53.24 138.794 54.3515C138.794 55.1029 139.25 55.7797 139.949 56.0674C140.649 56.3551 141.454 56.1953 141.989 55.6645L142.823 56.3509C142.548 56.6406 142.213 56.8703 141.841 57.0253C141.47 57.1803 141.069 57.257 140.665 57.2504C139.08 57.2504 137.72 56.1026 137.72 54.3515ZM134.247 56.0771C134.246 55.9805 134.264 55.8845 134.301 55.7949C134.338 55.7053 134.392 55.6236 134.461 55.5545C134.53 55.4854 134.612 55.4303 134.703 55.3923C134.793 55.3544 134.891 55.3342 134.989 55.3331C135.088 55.3342 135.185 55.3544 135.276 55.3923C135.366 55.4303 135.448 55.4854 135.517 55.5545C135.586 55.6236 135.641 55.7053 135.677 55.7949C135.714 55.8845 135.732 55.9805 135.731 56.0771C135.721 56.264 135.639 56.4404 135.501 56.5701C135.363 56.6998 135.18 56.7731 134.989 56.7751C134.798 56.7731 134.615 56.6998 134.477 56.5701C134.339 56.4404 134.257 56.264 134.247 56.0771Z" fill="#E6E6E6"/>
<path fill-rule="evenodd" clip-rule="evenodd" d="M137.215 44.591H133.353L130.645 51.43L127.952 44.591H124.09L128.785 55.3978L125.865 62.5426H129.699L137.215 44.591ZM113.725 50.6018C113.725 52.3284 115.265 53.4644 116.778 53.4644C118.265 53.4644 119.726 52.4072 119.726 50.6008C119.726 48.7943 118.265 47.736 116.778 47.736C115.265 47.736 113.725 48.8742 113.725 50.6018ZM119.726 56.6362V55.2688C118.943 56.4305 117.115 56.8696 116.177 56.8696C113.073 56.8696 109.968 54.4716 109.968 50.6008C109.968 46.731 113.072 44.3331 116.177 44.3331C116.96 44.3331 118.787 44.5888 119.726 45.9317V44.5952H123.326V56.6383L119.726 56.6362ZM108.943 56.6362H105.343V55.1398C104.741 56.2483 103.282 56.8941 101.768 56.8941C98.6368 56.8941 95.8707 54.4439 95.8707 50.6499C95.8707 46.7843 98.6368 44.3309 101.768 44.3309C103.28 44.3309 104.743 44.9491 105.343 46.0585V38.0301H108.943V56.6362ZM105.264 50.5741C105.264 48.7688 103.934 47.7105 102.447 47.7105C100.907 47.7105 99.6278 48.8455 99.6278 50.5741C99.6278 52.3582 100.907 53.488 102.446 53.488C103.961 53.4901 105.264 52.3029 105.264 50.5741ZM86.9688 50.263C86.9688 48.432 87.9347 47.8128 89.2128 47.8128C90.4386 47.8128 91.3262 48.6121 91.3262 50.2107V56.6341H94.9527V49.438C94.9527 46.0084 93.2297 44.3309 90.4898 44.3309C89.0551 44.3309 87.6203 45.1302 86.9677 46.3431V44.591H83.3434V56.6341H86.9688V50.263ZM75.9794 56.8408C72.5357 56.8408 69.663 54.365 69.663 50.5731C69.663 46.779 72.5324 44.3277 75.9794 44.3277C79.4264 44.3277 82.3209 46.779 82.3209 50.5731C82.3209 54.3673 79.4232 56.8408 75.9794 56.8408ZM75.9794 53.3344C77.4914 53.3344 78.7456 52.2495 78.7456 50.5741C78.7456 48.9489 77.4924 47.8394 75.9794 47.8394C75.6151 47.8338 75.2535 47.901 74.9165 48.0367C74.5795 48.1725 74.2743 48.3741 74.0193 48.6291C73.7629 48.8856 73.5617 49.1899 73.4278 49.5241C73.2938 49.8581 73.2298 50.2153 73.2394 50.5741C73.2405 52.2517 74.4925 53.3344 75.9794 53.3344ZM63.1616 47.8138C64.2309 47.8138 65.1707 48.6398 65.1707 50.2118V56.6362H68.771V49.7961C68.771 46.1598 66.9666 44.3288 64.0742 44.3288C63.215 44.3288 61.5964 44.5846 60.4217 46.4688C59.7429 45.0759 58.4387 44.3533 56.5112 44.3533C55.842 44.35 55.1861 44.5355 54.6216 44.8878C54.0573 45.2401 53.6083 45.7442 53.3285 46.3399V44.592H49.6999V56.6352H53.3254V50.263C53.3254 48.432 54.3435 47.8128 55.4388 47.8128C56.4829 47.8128 57.4205 48.6121 57.4478 50.134V56.6352H61.0742V50.263C61.0742 48.5119 62.0141 47.8138 63.1616 47.8138Z" fill="#E6E6E6"/>
</g>
</g>
</svg>
