<svg width="180" height="100" viewBox="0 0 180 100" fill="none" xmlns="http://www.w3.org/2000/svg">
<mask id="mask0_366_689" style="mask-type:luminance" maskUnits="userSpaceOnUse" x="20" y="36" width="140" height="28">
<path d="M159.29 36H20.031V64H159.29V36Z" fill="white"/>
</mask>
<g mask="url(#mask0_366_689)">
<mask id="mask1_366_689" style="mask-type:luminance" maskUnits="userSpaceOnUse" x="20" y="36" width="138" height="27">
<path d="M157.793 36.9254H20.031V62.3088H157.793V36.9254Z" fill="white"/>
</mask>
<g mask="url(#mask1_366_689)">
<path fill-rule="evenodd" clip-rule="evenodd" d="M149.661 41.7245C152.136 41.7245 154.729 42.2797 156.536 42.9936V38.1153C154.689 37.5203 152.136 36.9254 148.797 36.9254C142.473 36.9254 138.191 39.3051 138.191 44.2628C138.191 52.8297 150.408 51.0846 150.408 55.0507C150.408 56.5975 148.954 57.4701 146.087 57.4701C143.494 57.4701 140.469 57.3908 138.112 56.2802V61.119C140.469 61.9518 143.887 62.3088 146.479 62.3088C153.04 62.3088 157.793 60.3257 157.793 54.2179C157.793 46.0476 145.497 48.4273 145.497 43.5885C145.458 41.7641 147.422 41.7245 149.661 41.7245ZM123.853 55.6854H121.653V62.3088H113.993V36.9254C114.151 36.9254 120.082 37.0444 122.753 36.9254C130.649 37.0444 135.913 39.5827 135.913 45.7699C135.913 52.9883 130.767 55.6854 123.853 55.6854ZM122.792 41.3278C122.4 41.3278 122.125 41.3278 121.693 41.3278V51.2432H122.792C126.642 51.2432 128.253 50.0534 128.253 45.7303C128.253 43.073 126.446 41.3675 122.792 41.3278ZM102.012 36.9254H109.672V62.3088H102.012V36.9254ZM83.432 62.3088V36.9254H91.092V56.7958H98.7519L97.6521 62.3088H83.432ZM71.4118 36.9254H79.0718V62.3088H71.4118V36.9254ZM59.3915 52.3934H51.7316V62.3088H44.0716V36.9254H51.7316V46.8408H59.3915V36.9254H67.0515V62.3088H59.3915V52.3934ZM29.8515 55.6854H27.6517V62.3088H20.031V36.9254C20.1881 36.9254 26.1197 37.0444 28.7909 36.9254C36.6865 37.0444 41.9112 39.5827 41.9112 45.7699C41.9112 52.9883 36.7651 55.6854 29.8515 55.6854ZM28.7909 41.3278C28.3981 41.3278 28.1231 41.3278 27.691 41.3278V51.2432H28.7909C32.6405 51.2432 34.2511 50.0534 34.2511 45.7303C34.2511 43.073 32.4441 41.3675 28.7909 41.3278Z" fill="#E6E6E6"/>
</g>
</g>
</svg>
