<svg width="180" height="100" viewBox="0 0 180 100" fill="none" xmlns="http://www.w3.org/2000/svg">
<g clip-path="url(#clip0_366_658)">
<path d="M36.6681 48.4658H28.5975V52.4507V56.4357H36.6681V48.4658Z" fill="#939393"/>
<path fill-rule="evenodd" clip-rule="evenodd" d="M80.9342 34.5C81.1666 34.5 81.6679 34.6471 82.0347 34.8311C82.4994 35.064 82.7929 35.3215 83.0497 35.7139C83.2942 36.1185 83.4165 36.4863 83.4655 37.0626C83.5144 37.5408 83.4776 38.0803 83.3921 38.4114C83.3187 38.7179 83.0741 39.1839 82.8541 39.4414C82.634 39.7111 82.2426 40.0299 81.9736 40.1525C81.7046 40.2629 81.2277 40.3732 80.8975 40.3732C80.5796 40.3732 80.1149 40.2874 79.8704 40.177C79.6135 40.0789 79.2711 39.8705 79.1244 39.7234C78.9654 39.5762 78.7209 39.2329 78.5864 38.9632C78.4519 38.6934 78.3052 38.1662 78.2684 37.7983C78.2317 37.3692 78.2807 36.8787 78.403 36.4496C78.5374 35.9836 78.7454 35.6281 79.0633 35.3215C79.3201 35.064 79.7481 34.782 80.0171 34.6839C80.2861 34.5858 80.7019 34.5 80.9342 34.5ZM79.6625 36.1798C79.5647 36.3637 79.4546 36.7316 79.4057 37.0013C79.3568 37.2711 79.3445 37.7248 79.3934 38.019C79.4424 38.3378 79.6014 38.6934 79.8337 38.9632C80.0538 39.2329 80.3472 39.4168 80.6041 39.4659C80.8363 39.5027 81.1788 39.4659 81.46 39.3433C81.7902 39.1961 81.9736 39.0122 82.157 38.6321C82.2915 38.3256 82.4016 37.8474 82.4016 37.4918C82.4016 37.1362 82.2915 36.658 82.157 36.3637C82.0103 36.0449 81.7657 35.7629 81.5456 35.6526C81.35 35.5545 81.032 35.4687 80.8486 35.4687C80.6529 35.4809 80.3595 35.5545 80.1761 35.6526C79.9804 35.7507 79.7603 35.9836 79.6625 36.1798ZM118.719 44.1865C119.294 44.1743 120.235 44.2601 120.835 44.3582C121.422 44.4562 122.265 44.677 122.731 44.8487C123.182 45.0203 123.941 45.4004 124.405 45.6824C124.882 45.9644 125.616 46.5285 126.044 46.933C126.472 47.3377 127.072 47.9998 127.365 48.4045C127.658 48.8091 127.903 49.1892 127.89 49.2628C127.89 49.3363 127.182 49.8145 126.301 50.3418C125.432 50.8568 124.675 51.2859 124.625 51.2736C124.565 51.2736 124.308 50.9303 124.039 50.5134C123.745 50.072 123.232 49.5203 122.816 49.1892C122.412 48.8826 121.752 48.5025 121.348 48.3431C120.786 48.1225 120.297 48.0366 119.269 47.9998C118.145 47.9508 117.778 47.9875 117.068 48.196C116.592 48.3431 115.882 48.662 115.479 48.9317C115.075 49.1892 114.488 49.6796 114.183 50.0107C113.877 50.3418 113.449 50.9548 113.241 51.384C113.021 51.8008 112.764 52.4629 112.666 52.8553C112.569 53.2354 112.483 53.9956 112.483 54.5351C112.483 55.0747 112.569 55.8471 112.679 56.2517C112.776 56.6564 113.045 57.3185 113.253 57.7232C113.473 58.1277 113.975 58.7899 114.378 59.1945C114.819 59.6359 115.43 60.0895 115.907 60.3225C116.347 60.5432 117.118 60.813 117.619 60.9233C118.242 61.0582 118.829 61.095 119.454 61.046C119.955 61.0092 120.701 60.862 121.104 60.7272C121.508 60.5923 122.119 60.298 122.449 60.0773C122.791 59.8443 123.268 59.4275 123.513 59.1209C123.758 58.8267 124.099 58.2749 124.271 57.907C124.442 57.5392 124.589 57.1591 124.589 57.0855C124.589 56.9629 123.879 56.9139 118.414 56.8649L118.352 53.2477H128.869V53.8362C128.856 54.1551 128.808 54.9643 128.746 55.6387C128.685 56.3131 128.551 57.1959 128.441 57.6005C128.331 58.0052 128.049 58.753 127.817 59.2558C127.572 59.7585 127.145 60.5065 126.851 60.9111C126.558 61.3157 126.081 61.8798 125.788 62.1618C125.506 62.4315 124.931 62.8975 124.528 63.1672C124.125 63.4492 123.415 63.8416 122.938 64.0255C122.474 64.2216 121.642 64.4791 121.104 64.6018C120.566 64.7121 119.637 64.8103 119.025 64.8103C118.365 64.8103 117.424 64.6999 116.702 64.5528C115.846 64.3688 115.112 64.1113 114.256 63.6821C113.583 63.3511 112.679 62.7748 112.238 62.407C111.798 62.0391 111.211 61.4506 110.93 61.0828C110.649 60.7149 110.233 60.1141 110.013 59.7462C109.793 59.3784 109.426 58.5447 109.218 57.907C108.998 57.2327 108.778 56.2762 108.717 55.6387C108.656 55.0379 108.643 54.0692 108.692 53.4929C108.741 52.9166 108.888 52.0951 108.998 51.6538C109.12 51.2123 109.414 50.4153 109.671 49.8758C109.927 49.3363 110.453 48.478 110.857 47.9753C111.248 47.4725 111.896 46.8105 112.275 46.5039C112.654 46.1974 113.29 45.756 113.681 45.523C114.06 45.2778 114.843 44.9345 115.418 44.7505C115.993 44.5544 116.738 44.3582 117.068 44.3092C117.411 44.2479 118.145 44.1987 118.719 44.1865ZM155.038 44.4195H158.828V46.3568C158.828 47.4113 158.828 51.8744 158.828 56.2517C158.828 60.6413 158.828 64.2953 158.828 64.3811C158.828 64.4914 158.388 64.5159 155.098 64.4669L155.038 63.0568L154.548 63.486C154.279 63.719 153.839 64.0255 153.569 64.1603C153.301 64.2953 152.762 64.4914 152.384 64.5895C151.992 64.6876 151.344 64.7734 150.941 64.7734C150.537 64.7734 149.877 64.6876 149.474 64.5773C149.07 64.4791 148.385 64.1971 147.945 63.9764C147.492 63.7435 146.82 63.2163 146.38 62.7871C145.951 62.3457 145.426 61.6713 145.194 61.2176C144.974 60.7762 144.692 60.065 144.594 59.6237C144.484 59.1822 144.398 58.2749 144.398 57.6005C144.398 56.9261 144.484 56.0187 144.594 55.5774C144.692 55.1359 144.974 54.4248 145.194 53.9834C145.426 53.5419 145.866 52.9289 146.171 52.6101C146.477 52.2791 147.015 51.8254 147.37 51.5924C147.712 51.3594 148.299 51.0529 148.654 50.918C148.997 50.7831 149.681 50.6238 150.146 50.5502C150.721 50.4643 151.284 50.4643 151.895 50.5502C152.371 50.6238 153.081 50.8199 153.448 50.9916C153.815 51.1633 154.328 51.4576 155.038 52.0216V44.4195ZM149.302 54.8049C149.008 55.0624 148.617 55.5529 148.447 55.8839C148.177 56.4112 148.128 56.6564 148.128 57.6005C148.128 58.5447 148.177 58.7899 148.447 59.3171C148.617 59.6604 149.008 60.1386 149.302 60.3961C149.595 60.6413 150.085 60.9356 150.391 61.0337C150.696 61.144 151.295 61.2176 151.735 61.2176C152.311 61.2176 152.702 61.1318 153.142 60.9356C153.484 60.7762 153.973 60.3961 154.242 60.0895C154.524 59.783 154.829 59.2558 154.952 58.8757C155.062 58.5079 155.159 57.907 155.159 57.5392C155.159 57.1714 155.086 56.6196 154.976 56.3131C154.878 56.0065 154.561 55.4916 154.279 55.1604C153.973 54.8049 153.496 54.4371 153.142 54.2654C152.677 54.0569 152.322 53.9834 151.675 53.9956C151.21 53.9956 150.598 54.0814 150.329 54.1796C150.061 54.2654 149.595 54.5597 149.302 54.8049Z" fill="#E6E6E6"/>
<path d="M28.5974 48.3431V56.4357L36.6069 56.497L36.668 64.5282H28.5974V56.4357H20.5268L20.5023 52.4752C20.4901 50.2927 20.5268 48.4658 20.5879 48.429C20.6491 48.38 22.4711 48.3431 28.5974 48.3431Z" fill="#D6D6D6"/>
<path d="M44.6164 48.4658V40.3732C37.2428 40.3732 36.6804 40.3977 36.6192 40.5571C36.5825 40.6552 36.5458 42.4822 36.5458 44.6034V48.4658H44.6164Z" fill="#808080"/>
<path d="M28.5975 56.4357H20.5269V60.482V64.5282H28.5975V56.4357Z" fill="#808080"/>
<path d="M32.6329 40.3732H28.5975V44.4195V48.4658H36.5458C36.5458 42.4822 36.5703 40.6552 36.607 40.5571C36.6559 40.3977 36.1667 40.3732 32.6329 40.3732Z" fill="#A4A4A4"/>
<path d="M44.6165 48.4658H36.6804L36.6437 52.512L36.607 56.5582H44.6165V48.4658Z" fill="#A4A4A4"/>
<path fill-rule="evenodd" clip-rule="evenodd" d="M50.1191 34.6104H54.5212V35.5913H52.9315V40.2506H51.831V35.5913H50.1191V34.6104ZM56.9056 34.6104C57.2113 34.6104 57.4559 34.6226 57.4559 34.6471C57.4559 34.6594 57.676 35.5054 57.945 36.5109C58.2141 37.5286 58.4587 38.3746 58.4953 38.4114C58.5198 38.4482 58.6054 38.252 58.6665 37.9822C58.74 37.7125 58.9845 36.8542 59.6204 34.6717L60.6964 34.5981L61.2467 36.4373C61.5524 37.455 61.8337 38.2888 61.8948 38.2888C61.9437 38.2888 62.0904 37.8596 62.2127 37.3447C62.3472 36.8174 62.5551 35.9959 62.8975 34.6717L63.4233 34.6471C63.7046 34.6226 63.9369 34.6471 63.9369 34.7085C63.9369 34.7575 63.5945 36.0204 62.4084 40.2629L61.3323 40.1893L60.7698 38.3133C60.4641 37.2956 60.1828 36.4496 60.1462 36.4496C60.1095 36.4496 59.9872 36.7316 59.8771 37.0872C59.7671 37.4427 59.5102 38.301 58.9234 40.2506H58.3731C58.0673 40.2506 57.8228 40.2261 57.8228 40.1893C57.8228 40.1525 57.4926 38.9386 57.0891 37.4918C56.6856 36.0449 56.3554 34.8065 56.3554 34.733C56.3554 34.6594 56.5999 34.6104 56.9056 34.6104ZM66.1379 34.6104H67.2385V40.2506H66.1379V34.6104ZM69.6842 34.6104H70.7847V39.2697H72.6189V40.2506H69.6842V34.6104ZM75.9205 34.6104V40.2506H74.82L74.7955 37.5163C74.7834 36.0082 74.82 34.733 74.8811 34.6962C74.9423 34.6471 75.1991 34.6104 75.9205 34.6104ZM57.1502 44.2233C58.4342 44.2601 58.9234 44.3214 59.7182 44.5789C60.2929 44.7628 61.0633 45.1429 61.6136 45.5107C62.1149 45.8418 62.7508 46.3323 63.5089 47.0925L60.3296 49.4467L59.8405 48.8826C59.5592 48.5516 59.0701 48.1838 58.6788 47.9998C58.1896 47.7668 57.7494 47.6688 57.0279 47.6197C56.1598 47.5707 55.9764 47.6075 55.3404 47.8895C54.8391 48.1347 54.57 48.3432 54.3745 48.6742C54.2032 48.9685 54.1055 49.3486 54.0932 49.7165C54.0932 50.1088 54.1666 50.3908 54.35 50.636C54.4845 50.82 54.8147 51.1265 55.0837 51.3226C55.3404 51.5066 56.5511 52.0093 57.7616 52.4262C58.9723 52.8553 60.3785 53.4194 60.8799 53.6891C61.3812 53.9466 62.066 54.4371 62.4084 54.7804C62.7508 55.1114 63.1788 55.7 63.3499 56.0679C63.5333 56.4357 63.7412 57.1224 63.8146 57.6005C63.888 58.0787 63.9125 58.7654 63.8636 59.1332C63.8146 59.501 63.6801 60.1141 63.5456 60.482C63.4233 60.8498 63.1421 61.4261 62.9219 61.7571C62.7018 62.0882 62.2127 62.6522 61.8337 63.0201C61.4423 63.3756 60.782 63.8293 60.3663 64.0255C59.9382 64.2216 59.1312 64.4791 58.5565 64.6018C57.7739 64.7611 57.2113 64.7857 56.2942 64.7244C55.6217 64.6876 54.7169 64.565 54.2766 64.4546C53.8364 64.3443 53.0415 64.05 52.5035 63.7925C51.9654 63.535 51.2196 63.0936 50.8528 62.8116C50.4859 62.5173 49.9478 62.0637 49.6544 61.7817C49.3731 61.512 49.1407 61.2422 49.1407 61.1808C49.1407 61.1318 49.8867 60.5187 50.7916 59.8075C51.6964 59.0964 52.4791 58.5202 52.5402 58.5202C52.5891 58.5202 52.797 58.7531 53.0048 59.0351C53.2128 59.3294 53.6041 59.734 53.8609 59.9547C54.1176 60.1632 54.6435 60.482 55.0103 60.6536C55.3771 60.8253 56.013 61.0092 56.4165 61.046C56.869 61.095 57.3948 61.0705 57.7616 60.9847C58.104 60.8988 58.5687 60.7027 58.8011 60.5433C59.0334 60.3838 59.3514 60.0405 59.4981 59.783C59.6571 59.5255 59.8038 59.0351 59.8405 58.704C59.9016 58.2013 59.8649 58.0052 59.6325 57.6127C59.4369 57.2817 59.119 56.9997 58.6177 56.7177C58.2141 56.497 57.0891 56.0556 56.1108 55.7491C55.1326 55.4425 53.922 54.9889 53.4206 54.7559C52.9193 54.5229 52.259 54.1551 51.9533 53.9344C51.6476 53.7014 51.1951 53.2232 50.9505 52.8676C50.7059 52.4998 50.4125 51.8989 50.3147 51.5311C50.2046 51.1633 50.1191 50.4521 50.1191 49.9616C50.1191 49.459 50.2168 48.7723 50.3391 48.3677C50.4614 47.9875 50.7426 47.3745 50.975 47.0067C51.2073 46.6388 51.6843 46.0993 52.0144 45.805C52.3568 45.523 52.956 45.1184 53.3595 44.9099C53.7631 44.7137 54.4233 44.4685 54.8269 44.3704C55.3527 44.2356 56.0008 44.1865 57.1502 44.2233ZM141.781 44.1987C142.271 44.2233 142.515 44.3214 142.882 44.6157C143.151 44.8241 143.47 45.1797 143.591 45.4127C143.751 45.6824 143.836 46.0502 143.824 46.4427C143.824 46.7737 143.738 47.2273 143.64 47.4235C143.53 47.6197 143.298 47.9263 143.102 48.098C142.907 48.2696 142.528 48.4903 142.258 48.5761C141.965 48.6742 141.574 48.711 141.28 48.662C141.011 48.6129 140.583 48.4412 140.327 48.2818C140.081 48.1102 139.751 47.7423 139.617 47.448C139.421 47.0557 139.36 46.7737 139.397 46.2465C139.434 45.7682 139.544 45.4372 139.764 45.1062C139.96 44.8241 140.302 44.5421 140.62 44.4072C140.978 44.2438 141.366 44.1743 141.781 44.1987ZM104.058 44.4072L107.775 44.4808V64.4669L104.045 64.5283V63.9519C104.045 63.6208 104.021 63.3266 103.984 63.2776C103.948 63.2163 103.666 63.3756 103.336 63.6208C103.018 63.8783 102.566 64.1604 102.333 64.2585C102.101 64.3566 101.624 64.5159 101.294 64.6018C100.952 64.6999 100.365 64.7734 99.9734 64.7734C99.5944 64.7734 98.983 64.7121 98.6283 64.6386C98.2859 64.565 97.5767 64.3075 97.0754 64.0746C96.3905 63.7435 95.9381 63.4124 95.3023 62.7626C94.7765 62.2231 94.3118 61.61 94.0917 61.1563C93.896 60.7517 93.6514 60.1387 93.5414 59.8075C93.4068 59.3784 93.3457 58.7285 93.358 57.6005C93.358 56.1782 93.3947 55.8962 93.7004 55.0256C93.8838 54.4861 94.2384 53.7504 94.4829 53.3826C94.7398 53.0148 95.2166 52.463 95.559 52.1564C95.9137 51.8499 96.5373 51.4208 96.9652 51.2123C97.3932 51.0038 98.0536 50.7586 98.4204 50.6606C98.7873 50.5748 99.5087 50.5011 100.01 50.5011C100.585 50.5011 101.245 50.5993 101.783 50.7709C102.26 50.9058 102.908 51.2246 103.251 51.4698C103.581 51.7028 103.899 51.8989 103.948 51.8989C104.009 51.8989 104.045 50.2191 104.045 48.1592L104.058 44.4072ZM97.7235 55.3199C97.4911 55.6264 97.2343 56.1537 97.1365 56.4847C97.0387 56.828 96.9652 57.3185 96.9652 57.5882C96.9652 57.858 97.0387 58.3607 97.1365 58.6918C97.2343 59.0351 97.4911 59.5623 97.7235 59.8566C97.9925 60.2245 98.396 60.5555 98.8973 60.813C99.5332 61.144 99.79 61.2053 100.475 61.2053C100.927 61.2053 101.551 61.1318 101.857 61.0337C102.15 60.9356 102.639 60.6291 102.92 60.3593C103.214 60.0773 103.569 59.6237 103.715 59.3417C103.911 58.9493 103.984 58.5324 104.021 57.7109C104.07 56.6809 104.045 56.5582 103.715 55.8717C103.507 55.467 103.141 54.9643 102.871 54.7436C102.615 54.5352 102.15 54.2777 101.857 54.1673C101.551 54.0569 100.939 53.9711 100.487 53.9711C99.8267 53.9711 99.5454 54.0447 98.9096 54.3758C98.396 54.6373 98.0006 54.9521 97.7235 55.3199ZM72.2643 50.5011C72.6923 50.538 73.3037 50.6238 73.6094 50.6851C73.9029 50.7586 74.5632 51.0161 75.0768 51.2491C75.7371 51.5556 76.214 51.9113 76.801 52.4875C77.3513 53.0516 77.7425 53.5911 78.0482 54.2164C78.2928 54.7314 78.5863 55.5284 78.6841 55.9942C78.7819 56.4724 78.8553 57.343 78.8675 58.9983H68.3513L68.4247 59.2803C68.4614 59.4275 68.6203 59.7463 68.7548 59.9792C68.9015 60.2122 69.2439 60.5555 69.5129 60.7517C69.782 60.9356 70.2711 61.1808 70.6135 61.279C70.9437 61.377 71.494 61.4506 71.8364 61.4506C72.1665 61.4506 72.7412 61.3648 73.1203 61.2545C73.6461 61.095 73.9518 60.8988 75.2847 59.55L76.6297 60.347C77.3757 60.7885 78.0238 61.1931 78.0605 61.2422C78.0971 61.2912 78.0238 61.512 77.9015 61.7326C77.767 61.9533 77.3146 62.456 76.8866 62.8606C76.4586 63.2653 75.7493 63.7803 75.3214 63.9888C74.8811 64.2094 74.1353 64.4791 73.6706 64.5773C73.1936 64.6753 72.3988 64.7611 71.8975 64.7611C71.3594 64.7611 70.5769 64.6631 70.0021 64.5159C69.4641 64.3811 68.6937 64.0868 68.2901 63.8783C67.8744 63.6576 67.1773 63.1059 66.7005 62.6277C66.1379 62.0637 65.6978 61.4751 65.4532 60.9602C65.2331 60.531 64.9763 59.8075 64.8663 59.3662C64.7684 58.937 64.6828 58.1645 64.6828 57.6495C64.6828 57.1469 64.7684 56.3866 64.8663 55.9697C64.9641 55.5406 65.2453 54.8049 65.4898 54.3144C65.7834 53.7259 66.2113 53.1496 66.7493 52.6101C67.1896 52.1687 67.801 51.666 68.1067 51.4821C68.4002 51.3104 68.9871 51.0406 69.3906 50.9058C69.7942 50.7586 70.4179 50.5993 70.7969 50.538C71.1638 50.4889 71.8241 50.4643 72.2643 50.5011ZM70.1243 54.1919C69.8553 54.3267 69.4274 54.6578 69.1705 54.9398C68.926 55.2218 68.657 55.5529 68.5958 55.6877C68.4735 55.9329 68.5102 55.9329 71.7752 55.9329H75.0768C74.7222 55.2218 74.4043 54.8294 74.1353 54.5842C73.8662 54.3512 73.426 54.0937 73.1692 54.0079C72.9002 53.9344 72.4355 53.8363 72.1421 53.8117C71.8364 53.7749 71.3717 53.7872 71.1027 53.8486C70.8336 53.8976 70.3934 54.0569 70.1243 54.1919ZM87.2438 50.4398C87.5129 50.4276 88.0876 50.5011 88.5278 50.587C88.9558 50.6851 89.5427 50.869 89.8118 51.0039C90.0808 51.1388 90.521 51.4453 90.7901 51.6783C91.0591 51.9113 91.4503 52.4262 91.6705 52.8186C91.8783 53.2232 92.1473 53.9098 92.2452 54.3389C92.4042 54.9889 92.4286 56.0311 92.4409 64.5159H88.6501L88.6135 60.0773C88.5889 55.8839 88.5768 55.6019 88.3322 55.0747C88.1976 54.7804 87.8675 54.3635 87.6107 54.1551C87.2561 53.8853 86.9748 53.7749 86.5101 53.7381C86.18 53.7136 85.6909 53.7259 85.4341 53.7749C85.1773 53.824 84.7859 54.0202 84.5292 54.2531C84.2847 54.4739 83.979 54.8662 83.8322 55.1359C83.5876 55.6019 83.5631 55.8471 83.4531 64.4546L79.7235 64.5159V50.7831H83.5143L83.502 52.1933L83.9667 51.7396C84.2235 51.4943 84.7004 51.151 85.0428 50.9793C85.3729 50.8077 85.8987 50.6238 86.2044 50.5625C86.498 50.5011 86.9748 50.4398 87.2438 50.4398ZM129.737 50.7831H133.527V52.6224L134.163 51.9725C134.629 51.5066 135.02 51.2368 135.546 51.0406C136.157 50.82 136.474 50.7831 138.749 50.8445L138.126 52.4998C137.783 53.4194 137.453 54.2286 137.404 54.3144C137.347 54.4126 137 54.4616 136.364 54.4616C135.606 54.4616 135.313 54.5106 134.873 54.7436C134.433 54.9766 134.237 55.185 133.589 56.4724L133.527 64.5159L129.798 64.4546L129.737 50.7831ZM139.678 50.7831H143.555L143.494 64.4546L139.764 64.5159V54.4616H139.091C138.724 54.4616 138.419 54.4248 138.419 54.3758C138.419 54.3267 138.7 53.4929 139.054 52.5366L139.678 50.7831Z" fill="#E6E6E6"/>
</g>
<defs>
<clipPath id="clip0_366_658">
<rect width="139" height="31" fill="white" transform="translate(20.5 34.5)"/>
</clipPath>
</defs>
</svg>
