<svg width="180" height="100" viewBox="0 0 180 100" fill="none" xmlns="http://www.w3.org/2000/svg">
<mask id="mask0_366_700" style="mask-type:luminance" maskUnits="userSpaceOnUse" x="19" y="28" width="141" height="44">
<path d="M159.617 28.5H19.8875V71.5H159.617V28.5Z" fill="white"/>
</mask>
<g mask="url(#mask0_366_700)">
<path d="M110.181 38.767C104.096 38.7961 99.1397 43.7752 99.1677 49.9748C99.1956 56.1744 104.202 61.1068 110.286 61.079C116.371 61.0511 121.329 56.0707 121.3 49.8737C121.27 43.6766 116.266 38.7405 110.178 38.7695L110.181 38.767ZM110.265 56.5323C108.54 56.5425 106.882 55.8684 105.656 54.6606C104.43 53.4528 103.751 51.8074 103.732 50.0899C103.713 48.3725 104.399 46.722 105.612 45.5016C106.825 44.2811 108.477 43.6045 110.203 43.5855C111.928 43.5666 113.585 44.2495 114.811 45.4573C116.037 46.6651 116.716 48.3105 116.735 50.028C116.753 53.4743 113.725 56.5146 110.265 56.5323ZM134.832 44.0219C131.65 44.037 129.171 46.6651 129.187 49.8332L129.238 60.4377L124.395 60.4605L124.297 39.3867L129.14 39.364L129.156 42.6686C129.156 42.6686 131.214 39.3551 135.365 39.3361L136.75 39.3285L136.773 44.0105L134.832 44.0219ZM86.5285 39.5663L90.1945 54.0118L94.0002 39.5309L98.8425 39.5094L92.8519 60.6237L88.1493 60.6452L84.3462 45.9265L80.6802 60.6793L75.9763 60.7008L69.6529 39.6561L74.3555 39.6346L78.5728 54.0775L81.9644 39.5992L86.5285 39.5663ZM150.899 48.9074C154.208 46.9648 156.546 43.3718 156.527 39.24L151.684 39.2628C151.702 42.8444 148.808 45.7507 145.351 45.7634L144.659 45.7659L144.582 29.1009L139.74 29.1236L139.889 60.3872L144.728 60.3657L144.683 50.4504L145.235 50.4478C145.789 50.4453 146.344 50.7185 146.485 51.1308L153.306 60.3252L158.978 60.2999L150.899 48.9074Z" fill="#E6E6E6"/>
<path d="M58.4441 39.0098C53.189 39.0351 49.1927 42.4966 47.6976 48.012C45.1888 44.1673 43.2313 39.7699 42.1084 36.0567L36.5764 36.082L36.645 50.6805C36.6511 52.0686 36.1033 53.4022 35.1222 54.3882C34.141 55.3742 32.8068 55.9321 31.4127 55.9392C30.0186 55.9453 28.6792 55.3999 27.6887 54.4231C26.6983 53.4462 26.138 52.1179 26.1309 50.7299L26.0611 36.1314L20.5265 36.1567L20.5951 50.7552C20.6243 56.8131 25.4856 61.6139 31.4356 61.5848C37.3855 61.5557 42.2049 56.7132 42.177 50.654L42.1643 48.1752C43.2796 50.372 44.6743 52.7066 46.2076 54.7668L42.8248 70.8956L48.4953 70.8703L50.9342 59.1515C53.1534 60.52 55.6342 61.3332 58.5508 61.3192C64.6379 61.2902 69.5958 56.311 69.564 49.9748C69.5409 47.0555 68.3587 44.2639 66.2755 42.2094C64.1924 40.1548 61.3775 39.0041 58.4453 39.0086L58.4441 39.0098ZM58.5228 55.6749C56.31 55.685 54.0934 54.7314 52.2883 53.2239L52.8307 51.0195V50.893C53.2372 48.5482 54.4592 44.5492 58.6105 44.5315C60.0742 44.5291 61.4796 45.1024 62.5209 46.1266C63.5621 47.1507 64.1551 48.5429 64.1704 50.0001C64.046 53.1682 61.4305 55.6597 58.5241 55.6736L58.5228 55.6749Z" fill="#E6E6E6"/>
</g>
</svg>
